<svg width="313" height="174" viewBox="0 0 313 174" fill="none" xmlns="http://www.w3.org/2000/svg">
<rect width="311.768" height="174" transform="translate(0.537109)" fill="url(#paint0_radial_1_163)" fill-opacity="0.11"/>
<path d="M198.561 82.4045C197.45 82.3782 196.365 82.7109 195.473 83.3588C194.834 83.7791 194.283 84.3131 193.863 84.9435C193.495 84.173 192.918 83.5252 192.183 83.0786C191.456 82.6321 190.608 82.3957 189.75 82.4045C188.91 82.3782 188.07 82.5621 187.318 82.9385C186.565 83.3063 185.918 83.8579 185.428 84.5408L185.314 82.7547H181.543V83.0699C181.621 84.2694 181.656 85.6614 181.656 87.6051V98.6368H185.839V89.3036C185.839 88.9009 185.9 88.5069 186.031 88.1304C186.338 87.1411 187.186 86.143 188.376 86.143C190.371 86.143 190.581 88.4894 190.581 89.4963V98.6368H194.764V89.1723C194.773 88.7696 194.825 88.3756 194.921 87.9816C195.228 87.1148 196.006 86.1342 197.214 86.1342C199.113 86.1342 199.506 88.1742 199.506 89.8902V98.628H203.715V89.3212C203.715 82.886 199.778 82.4045 198.553 82.4045H198.561Z" fill="#46BBF9"/>
<path d="M213.034 82.6146C207.88 82.6146 205.526 87.036 205.526 91.1422C205.526 96.1153 208.554 99.1971 213.428 99.1971C215.23 99.2146 217.024 98.8819 218.695 98.199L218.914 98.1027L218.249 94.8545L217.916 94.9858C216.648 95.4674 215.3 95.695 213.935 95.66C211.468 95.66 209.91 94.408 209.709 92.2804H219.509L219.553 92.044C219.64 91.4837 219.684 90.9234 219.684 90.3543C219.684 86.7734 217.943 82.6146 213.025 82.6146H213.034ZM212.824 85.8365C213.165 85.819 213.497 85.8803 213.812 86.0029C214.127 86.1255 214.416 86.3093 214.653 86.537C215.248 87.2199 215.58 88.0954 215.58 88.9972H209.735C209.954 87.6927 210.785 85.8453 212.824 85.8453V85.8365Z" fill="#46BBF9"/>
<path d="M235.766 94.1978V75.6366H230.884V83.8403C230.053 82.8335 228.941 82.3694 227.384 82.3694C226.535 82.3694 225.695 82.5358 224.908 82.8597C224.12 83.1837 223.411 83.6565 222.816 84.2606C221.224 85.8278 220.358 88.2092 220.375 90.9409C220.375 95.6862 223.201 99.1446 227.086 99.1446C229.143 99.1446 230.648 98.2253 231.671 96.3429H231.689L231.374 98.8644H235.906V98.558C235.836 97.5686 235.775 95.8088 235.775 94.1978H235.766ZM230.989 89.8815V92.2104C230.989 92.5781 230.963 92.9458 230.875 93.296C230.551 94.7932 229.755 95.4586 228.285 95.4586C226.15 95.4586 224.829 93.69 224.829 90.8446C224.829 87.9991 226.194 86.0116 228.329 86.0116C229.93 86.0116 230.621 87.5964 230.91 88.9184C230.963 89.2423 230.989 89.5663 230.989 89.8902V89.8815Z" fill="#46BBF9"/>
<path d="M240.806 76.0656C240.448 76.0481 240.08 76.1006 239.748 76.2232C239.406 76.3458 239.1 76.5384 238.838 76.7923C238.575 77.0375 238.374 77.3439 238.234 77.6678C238.094 78.0005 238.033 78.3508 238.041 78.7097C238.041 79.0599 238.111 79.4014 238.251 79.7253C238.391 80.0493 238.593 80.3382 238.846 80.5746C239.1 80.8197 239.406 81.0036 239.73 81.1262C240.063 81.2488 240.413 81.31 240.763 81.2925C242.381 81.2925 243.563 80.1981 243.563 78.6747C243.563 78.3245 243.493 77.9743 243.353 77.6503C243.213 77.3264 243.011 77.0287 242.749 76.7836C242.495 76.5384 242.189 76.3458 241.848 76.2232C241.515 76.1006 241.156 76.0394 240.798 76.0569L240.806 76.0656Z" fill="#46BBF9"/>
<path d="M243.099 82.7634H238.496V98.8644H243.099V82.7634Z" fill="#46BBF9"/>
<path d="M258.079 98.5317C257.921 97.3147 257.851 96.089 257.86 94.8632V89.2861C257.86 84.9172 255.533 82.5008 251.306 82.5008C249.338 82.4658 247.386 82.9473 245.671 83.9104L245.488 84.0242L246.406 87.1323L246.73 86.9222C247.911 86.2043 249.276 85.8278 250.668 85.8278C252.969 85.8278 253.459 87.1236 253.468 88.2092C247.658 88.2442 244.455 90.4156 244.455 94.3204C244.455 96.7456 246.205 99.1971 249.521 99.1971C250.335 99.2146 251.14 99.0658 251.893 98.7593C252.645 98.4529 253.328 97.9976 253.896 97.4285L254.098 98.8469H258.149L258.079 98.5317ZM250.711 95.8438C249.513 95.8438 248.821 95.1347 248.821 93.9089C248.821 91.7464 251.35 91.3174 253.468 91.3174H253.538V93.1647C253.538 93.4274 253.503 93.69 253.433 93.9352C253.24 94.4955 252.872 94.9771 252.382 95.3185C251.892 95.66 251.306 95.8438 250.711 95.8351V95.8438Z" fill="#46BBF9"/>
<path d="M67.5038 76.3108H63.9688L54.6938 98.5055H59.76L61.8513 93.655H69.7963L71.7913 98.5055H76.8663L67.5038 76.3108ZM68.4225 89.5488H63.3563L65.7625 83.6915L68.4225 89.5488Z" fill="#46BBF9"/>
<path d="M91.3213 83.6477C90.6825 82.9298 89.895 82.3607 89.0113 81.9754C88.1275 81.5902 87.1738 81.3976 86.2113 81.4063C85.0563 81.4414 83.9188 81.704 82.8688 82.1856C81.8188 82.6671 80.8825 83.3588 80.1213 84.2168C78.6513 85.8978 77.855 88.0429 77.8813 90.2579C77.8813 92.4468 78.6863 94.5655 80.1213 96.2291C80.8563 97.0958 81.7663 97.7875 82.7988 98.269C83.8313 98.7506 84.9513 99.0045 86.0975 99.0045C87.1825 99.022 88.2588 98.7856 89.2213 98.2953C90.1925 97.8138 91.0238 97.1046 91.6538 96.2291V98.4617H95.39V75.9255H91.33V83.6477H91.3213ZM86.675 94.9333C84.0238 94.9333 82.0638 92.7182 82.0638 90.0653C82.0638 87.6401 84.1988 85.425 86.605 85.425C87.8825 85.425 89.1075 85.9066 90.0088 86.7996C90.9188 87.6839 91.4263 88.8921 91.435 90.1529C91.435 91.4136 90.945 92.6219 90.0438 93.5149C89.1513 94.408 87.9263 94.9158 86.6488 94.9245H86.6663L86.675 94.9333Z" fill="#46BBF9"/>
<path d="M143.629 84.6546C142.316 82.1505 139.473 80.9336 136.673 80.9336C134.205 80.9336 131.703 81.8003 128.999 84.6546C128.351 85.2324 127.144 87.6401 127.144 89.9778C127.144 92.6394 128.246 94.8632 128.894 95.5637C131.169 98.1552 134.056 99.2934 136.725 99.2934C139.394 99.2934 142.246 98.0414 143.611 95.5637V98.8644H145.921V81.31H143.62V84.6458L143.629 84.6546ZM136.734 97.017C132.928 97.017 129.55 94.0315 129.55 90.1791C129.55 89.2598 129.743 88.3493 130.101 87.5C130.46 86.6508 130.985 85.8803 131.65 85.2324C132.315 84.5845 133.094 84.0767 133.951 83.7265C134.809 83.3763 135.736 83.2012 136.664 83.2099C137.591 83.2099 138.51 83.385 139.359 83.7353C140.216 84.0855 140.986 84.602 141.634 85.2587C142.281 85.9066 142.798 86.6858 143.13 87.5351C143.471 88.3843 143.638 89.2949 143.62 90.2054C143.585 92.0002 142.85 93.7163 141.564 94.9858C140.278 96.2553 138.545 96.982 136.725 97.017H136.734Z" fill="#46BBF9"/>
<path d="M114.824 87.8765V90.0391H122.76V90.9058C121.238 94.5918 117.239 97.017 113.17 97.017C107.351 97.017 102.416 92.7007 102.416 86.9134C102.451 85.5476 102.766 84.1993 103.353 82.9473C103.93 81.704 104.761 80.5921 105.794 79.6728C107.806 77.9305 110.396 76.9762 113.074 77.0024C116.425 77.0024 119.899 78.2982 121.649 81.0211L123.644 79.5677C122.708 78.3333 121.561 77.2739 120.258 76.4246C118.14 75.0763 115.638 74.6998 113.091 74.6998C109.618 74.6385 106.258 75.9518 103.764 78.3333C101.419 80.5746 100.063 83.639 99.9925 86.8609C99.9925 93.8126 106.048 99.2847 113.1 99.2847C118.341 99.2847 123.119 96.2028 125.096 91.6676V87.894H114.833L114.824 87.8765Z" fill="#46BBF9"/>
<path d="M154.173 75.0413H151.758V81.2225H148.415V83.3851H151.758V98.8381H154.173V83.3851H157.883V81.2225H154.173V75.0413Z" fill="#46BBF9"/>
<path d="M168.4 80.8723C165.924 80.8723 163.561 81.8616 161.811 83.5952C160.07 85.3287 159.09 87.6751 159.099 90.1179C159.099 92.5606 160.096 94.8983 161.855 96.6231C163.614 98.3478 165.985 99.3109 168.461 99.3022C170.124 99.2584 171.751 98.7856 173.169 97.9363C174.586 97.0783 175.759 95.8701 176.555 94.4255L174.613 93.1297C173.536 95.5462 170.868 97.017 168.225 97.017C167.026 96.982 165.845 96.6493 164.812 96.0452C163.78 95.4411 162.914 94.5831 162.301 93.5587C161.697 92.5606 161.409 91.4137 161.452 90.258H177.596V90.0828C177.587 87.9816 176.87 85.9416 175.558 84.2868C174.7 83.2275 173.606 82.3694 172.364 81.7828C171.121 81.1962 169.765 80.881 168.391 80.881L168.4 80.8723ZM161.802 88.0341C162.336 85.5213 165.477 83.1574 168.426 83.1574C171.375 83.1574 174.315 85.4075 174.901 87.9816L161.802 88.0341Z" fill="#46BBF9"/>
<defs>
<radialGradient id="paint0_radial_1_163" cx="0" cy="0" r="1" gradientUnits="userSpaceOnUse" gradientTransform="translate(155.884) rotate(90) scale(174 191.949)">
<stop stop-color="#46BBF9"/>
<stop offset="1" stop-color="white" stop-opacity="0"/>
</radialGradient>
</defs>
</svg>
