<svg width="312" height="174" viewBox="0 0 312 174" fill="none" xmlns="http://www.w3.org/2000/svg">
<rect width="311.768" height="174" fill="url(#paint0_radial_1_189)" fill-opacity="0.11"/>
<g clip-path="url(#clip0_1_189)">
<path d="M240.008 100.904C234.808 100.904 231.305 98.0588 231.044 94.3583H236.94C237.071 95.7059 238.311 96.5829 239.943 96.5829C241.488 96.5829 242.293 95.8984 242.293 95.0428C242.293 91.9626 231.675 94.1872 231.675 87.1497C231.675 83.8984 234.503 81.2032 239.595 81.2032C244.621 81.2032 247.405 83.9412 247.797 87.7273H242.293C242.118 86.4225 241.096 85.5668 239.421 85.5668C238.028 85.5668 237.267 86.123 237.267 87.0428C237.267 90.1016 247.819 87.9412 247.906 95.0642C247.906 98.4011 244.903 100.904 240.008 100.904Z" fill="#161C18"/>
<path d="M131.048 101.053H117.994V73.5027H130.591C136.291 73.5027 139.685 76.2834 139.685 80.6471C139.685 83.984 137.64 86.1444 134.942 86.9144C138.206 87.5776 140.338 90.4011 140.338 93.5455C140.338 98.1016 136.966 101.053 131.048 101.053ZM129.285 78.8931H124.825V84.6685H129.285C131.526 84.6685 132.767 83.6845 132.767 81.8021C132.767 79.8984 131.526 78.8931 129.285 78.8931ZM129.786 89.5455H124.847V95.6203H129.873C132.157 95.6203 133.463 94.5936 133.463 92.6471C133.441 90.7005 132.049 89.5455 129.786 89.5455Z" fill="#161C18"/>
<path d="M142.884 76.754C142.884 74.9786 144.32 73.5668 146.452 73.5668C148.541 73.5668 149.977 74.9786 149.977 76.754C149.977 78.508 148.541 79.9198 146.452 79.9198C144.32 79.8984 142.884 78.4866 142.884 76.754ZM143.45 81.8877H149.411V101.032H143.45V81.8877Z" fill="#161C18"/>
<path d="M154.894 86.7647H152.523V81.8877H154.894V77.2246H160.856V81.8877H164.772V86.7647H160.856V94.4439C160.856 95.5775 161.334 96.0481 162.661 96.0481H164.794V101.032H161.748C157.701 101.032 154.872 99.3422 154.872 94.3797V86.7647H154.894Z" fill="#161C18"/>
<path d="M195.058 81.353C198.017 81.353 200.106 82.6792 201.172 84.3905V81.6311H207.242V101.118H201.172V98.3584C200.062 100.07 197.974 101.396 195.015 101.396C190.185 101.396 186.312 97.4814 186.312 91.3423C186.312 85.2033 190.185 81.353 195.058 81.353ZM196.842 86.5723C194.558 86.5723 192.513 88.2407 192.513 91.3637C192.513 94.4867 194.58 96.2193 196.842 96.2193C199.149 96.2193 201.172 94.5081 201.172 91.4065C201.172 88.2835 199.149 86.5723 196.842 86.5723Z" fill="#161C18"/>
<path d="M221.645 82.8289C226.192 82.8289 229.739 86.3797 229.739 92.0909C229.739 97.7808 226.149 101.417 221.645 101.417C218.947 101.417 217.011 100.219 215.988 98.6364V101.16H210.353V77.2032H215.966V85.6524C216.989 84.0267 219.012 82.8289 221.645 82.8289ZM219.948 87.6631C217.838 87.6631 215.923 89.246 215.923 92.1337C215.923 95.0214 217.838 96.6043 219.948 96.6043C222.08 96.6043 223.995 94.9786 223.995 92.1123C223.995 89.246 222.102 87.6631 219.948 87.6631Z" fill="#161C18"/>
<path d="M183.809 101.096H169.363V95.6845H183.809C184.484 95.6845 185.028 96.2193 185.028 96.8824V99.8984C185.028 100.561 184.484 101.096 183.809 101.096Z" fill="#007BFF"/>
<path d="M173.41 77.8663H169.341V72.4331H173.41C174.084 72.4331 174.628 72.9679 174.628 73.631V76.647C174.65 77.3315 174.106 77.8663 173.41 77.8663Z" fill="#007BFF"/>
<path d="M174.911 93.3529H169.341V87.9412H174.911C175.585 87.9412 176.129 88.4759 176.129 89.139V92.1551C176.129 92.8182 175.585 93.3529 174.911 93.3529Z" fill="#007BFF"/>
<path d="M177.413 85.6095H169.341V80.1978H177.413C178.088 80.1978 178.631 80.7325 178.631 81.3956V84.4117C178.631 85.0748 178.088 85.6095 177.413 85.6095Z" fill="#007BFF"/>
<path d="M104.591 66.9146H63.9056V106.915H104.591V66.9146Z" fill="#007BFF"/>
<path d="M96.8687 97.3101L89.2101 81.8876V73.5454C89.2101 73.1175 88.862 72.7539 88.4051 72.7539H80.0722C79.637 72.7539 79.2671 73.0962 79.2671 73.5454V81.8876L71.6086 97.3101C71.2605 98.1229 71.3475 98.9357 71.8697 99.5347C72.3701 100.134 73.2622 100.476 74.2848 100.476H94.1925C95.2151 100.476 96.1072 100.134 96.6076 99.5347C97.1297 98.9357 97.2168 98.1229 96.8687 97.3101Z" fill="white"/>
<path d="M93.9316 96.6684L90.1676 89.6523L87.0346 95.1497L81.617 91.5347L76.0907 95.3208L75.8296 94.5507L75.6991 94.6363L74.546 96.647C74.2849 97.0962 74.3066 97.631 74.5677 98.0802C74.8288 98.5293 75.3292 98.786 75.8514 98.786H92.6262C93.1483 98.786 93.6487 98.5293 93.9098 98.0802C94.1927 97.6523 94.1927 97.1176 93.9316 96.6684Z" fill="#007BFF"/>
<path d="M76.0036 95.7701C76.9649 95.7701 77.7442 95.004 77.7442 94.0589C77.7442 93.1138 76.9649 92.3477 76.0036 92.3477C75.0423 92.3477 74.263 93.1138 74.263 94.0589C74.263 95.004 75.0423 95.7701 76.0036 95.7701Z" fill="white"/>
<path d="M86.5774 95.6846C87.779 95.6846 88.7531 94.7269 88.7531 93.5455C88.7531 92.3642 87.779 91.4065 86.5774 91.4065C85.3758 91.4065 84.4017 92.3642 84.4017 93.5455C84.4017 94.7269 85.3758 95.6846 86.5774 95.6846Z" fill="white"/>
<path d="M81.6155 91.8128C82.5167 91.8128 83.2473 91.0945 83.2473 90.2085C83.2473 89.3225 82.5167 88.6042 81.6155 88.6042C80.7143 88.6042 79.9837 89.3225 79.9837 90.2085C79.9837 91.0945 80.7143 91.8128 81.6155 91.8128Z" fill="white"/>
<path d="M89.514 90.123C90.4152 90.123 91.1458 89.4047 91.1458 88.5187C91.1458 87.6327 90.4152 86.9144 89.514 86.9144C88.6128 86.9144 87.8822 87.6327 87.8822 88.5187C87.8822 89.4047 88.6128 90.123 89.514 90.123Z" fill="white"/>
<path d="M89.5144 87.6204C88.9922 87.6204 88.5789 88.0268 88.5789 88.5401C88.5789 88.7754 88.6659 88.968 88.7964 89.1391L87.0559 92.1979C86.9036 92.1337 86.7295 92.1123 86.5554 92.1123C86.1856 92.1123 85.8592 92.2407 85.5981 92.476L82.3781 90.3155C82.3781 90.2942 82.3781 90.2514 82.3781 90.23C82.3781 89.8022 82.03 89.4599 81.5948 89.4599C81.1597 89.4599 80.8116 89.8022 80.8116 90.23C80.8116 90.2728 80.8116 90.2942 80.8116 90.3369L76.6777 93.2032C76.4819 93.0535 76.2643 92.968 76.0032 92.968C75.394 92.968 74.9154 93.4599 74.9154 94.0375C74.9154 94.615 75.4158 95.107 76.0032 95.107C76.5907 95.107 77.0911 94.615 77.0911 94.0375C77.0911 93.9305 77.0693 93.8236 77.0476 93.738L81.1379 90.8717C81.2685 90.9573 81.4208 91 81.5731 91C81.7471 91 81.8994 90.9573 82.03 90.8503L85.1848 92.9466C85.0977 93.1177 85.0542 93.3316 85.0542 93.5241C85.0542 94.3369 85.7069 94.9787 86.5337 94.9787C87.3605 94.9787 88.0132 94.3369 88.0132 93.5241C88.0132 93.1177 87.8609 92.7754 87.578 92.4974L89.3186 89.3958C89.3621 89.3958 89.4056 89.4172 89.4491 89.4172C89.9713 89.4172 90.3847 89.0107 90.3847 88.4974C90.45 88.0268 90.0148 87.6204 89.5144 87.6204Z" fill="#007BFF"/>
</g>
<defs>
<radialGradient id="paint0_radial_1_189" cx="0" cy="0" r="1" gradientUnits="userSpaceOnUse" gradientTransform="translate(155.884) rotate(90) scale(174 191.949)">
<stop stop-color="#007BFF"/>
<stop offset="1" stop-color="white" stop-opacity="0"/>
</radialGradient>
<clipPath id="clip0_1_189">
<rect width="184" height="40" fill="white" transform="translate(63.8841 67)"/>
</clipPath>
</defs>
</svg>
