<svg width="36" height="37" viewBox="0 0 36 37" fill="none" xmlns="http://www.w3.org/2000/svg">
<path d="M33.0094 0.467651H3.84269C3.06914 0.467651 2.32728 0.774942 1.7803 1.32192C1.23332 1.8689 0.926025 2.61077 0.926025 3.38432V13.5927C0.926025 23.2031 5.57811 29.0273 9.48097 32.221C13.6846 35.6591 17.8664 36.8257 18.0487 36.8749C18.2993 36.9431 18.5637 36.9431 18.8143 36.8749C18.9966 36.8257 23.1729 35.6591 27.382 32.221C31.2739 29.0273 35.926 23.2031 35.926 13.5927V3.38432C35.926 2.61077 35.6187 1.8689 35.0718 1.32192C34.5248 0.774942 33.7829 0.467651 33.0094 0.467651ZM26.7531 13.1661L16.5448 23.3744C16.4093 23.51 16.2485 23.6176 16.0715 23.691C15.8944 23.7644 15.7047 23.8021 15.513 23.8021C15.3214 23.8021 15.1316 23.7644 14.9545 23.691C14.7775 23.6176 14.6167 23.51 14.4812 23.3744L10.1062 18.9994C9.83259 18.7258 9.67886 18.3546 9.67886 17.9677C9.67886 17.5807 9.83259 17.2095 10.1062 16.9359C10.3799 16.6622 10.751 16.5085 11.138 16.5085C11.525 16.5085 11.8961 16.6622 12.1698 16.9359L15.5094 20.2809L24.6859 11.1025C24.8214 10.9671 24.9823 10.8596 25.1593 10.7862C25.3363 10.7129 25.5261 10.6752 25.7177 10.6752C25.9093 10.6752 26.0991 10.7129 26.2761 10.7862C26.4531 10.8596 26.614 10.9671 26.7495 11.1025C26.885 11.238 26.9924 11.3989 27.0658 11.5759C27.1391 11.753 27.1768 11.9427 27.1768 12.1343C27.1768 12.3259 27.1391 12.5157 27.0658 12.6927C26.9924 12.8697 26.885 13.0306 26.7495 13.1661H26.7531Z" fill="#25AD4B"/>
</svg>
