<svg width="36" height="27" viewBox="0 0 36 27" fill="none" xmlns="http://www.w3.org/2000/svg">
<path d="M26.5926 7.78169V6.9694C26.5926 3.3119 21.0757 0.552734 13.7592 0.552734C6.44278 0.552734 0.925903 3.3119 0.925903 6.9694V12.8027C0.925903 15.8492 4.75403 18.27 10.2592 18.9948V19.8027C10.2592 23.4602 15.7761 26.2194 23.0926 26.2194C30.409 26.2194 35.9259 23.4602 35.9259 19.8027V13.9694C35.9259 10.9507 32.2188 8.5269 26.5926 7.78169ZM7.9259 16.1379C5.06903 15.3402 3.25924 14.0263 3.25924 12.8027V10.7509C4.44924 11.5938 6.04319 12.2734 7.9259 12.7298V16.1379ZM19.5926 12.7298C21.4753 12.2734 23.0692 11.5938 24.2592 10.7509V12.8027C24.2592 14.0263 22.4494 15.3402 19.5926 16.1379V12.7298ZM17.2592 23.1379C14.4024 22.3402 12.5926 21.0263 12.5926 19.8027V19.1946C12.9761 19.2092 13.364 19.2194 13.7592 19.2194C14.3251 19.2194 14.8778 19.2004 15.4203 19.1684C16.0229 19.3841 16.6368 19.5672 17.2592 19.7167V23.1379ZM17.2592 16.6309C16.1005 16.802 14.9306 16.8874 13.7592 16.8861C12.5879 16.8874 11.418 16.802 10.2592 16.6309V13.1615C11.4197 13.3127 12.5889 13.3877 13.7592 13.3861C14.9296 13.3877 16.0987 13.3127 17.2592 13.1615V16.6309ZM26.5926 23.6309C24.2716 23.9711 21.9135 23.9711 19.5926 23.6309V20.1527C20.7527 20.3087 21.922 20.3866 23.0926 20.3861C24.2629 20.3877 25.4321 20.3127 26.5926 20.1615V23.6309ZM33.5926 19.8027C33.5926 21.0263 31.7828 22.3402 28.9259 23.1379V19.7298C30.8086 19.2734 32.4026 18.5938 33.5926 17.7509V19.8027Z" fill="#25AD4B"/>
</svg>
