<svg width="36" height="36" viewBox="0 0 36 36" fill="none" xmlns="http://www.w3.org/2000/svg">
<path d="M33.7165 14.4915C33.1275 13.8759 32.5181 13.2415 32.2884 12.6837C32.0759 12.1728 32.0634 11.3259 32.0509 10.5056C32.0275 8.98059 32.0025 7.25247 30.8009 6.0509C29.5993 4.84934 27.8712 4.82434 26.3462 4.8009C25.5259 4.7884 24.679 4.7759 24.1681 4.5634C23.6118 4.33372 22.9759 3.72434 22.3603 3.13528C21.2822 2.09934 20.0572 0.925903 18.4259 0.925903C16.7947 0.925903 15.5712 2.09934 14.4915 3.13528C13.8759 3.72434 13.2415 4.33372 12.6837 4.5634C12.1759 4.7759 11.3259 4.7884 10.5056 4.8009C8.98059 4.82434 7.25247 4.84934 6.0509 6.0509C4.84934 7.25247 4.83215 8.98059 4.8009 10.5056C4.7884 11.3259 4.7759 12.1728 4.5634 12.6837C4.33372 13.24 3.72434 13.8759 3.13528 14.4915C2.09934 15.5697 0.925903 16.7947 0.925903 18.4259C0.925903 20.0572 2.09934 21.2806 3.13528 22.3603C3.72434 22.9759 4.33372 23.6103 4.5634 24.1681C4.7759 24.679 4.7884 25.5259 4.8009 26.3462C4.82434 27.8712 4.84934 29.5993 6.0509 30.8009C7.25247 32.0025 8.98059 32.0275 10.5056 32.0509C11.3259 32.0634 12.1728 32.0759 12.6837 32.2884C13.24 32.5181 13.8759 33.1275 14.4915 33.7165C15.5697 34.7525 16.7947 35.9259 18.4259 35.9259C20.0572 35.9259 21.2806 34.7525 22.3603 33.7165C22.9759 33.1275 23.6103 32.5181 24.1681 32.2884C24.679 32.0759 25.5259 32.0634 26.3462 32.0509C27.8712 32.0275 29.5993 32.0025 30.8009 30.8009C32.0025 29.5993 32.0275 27.8712 32.0509 26.3462C32.0634 25.5259 32.0759 24.679 32.2884 24.1681C32.5181 23.6118 33.1275 22.9759 33.7165 22.3603C34.7525 21.2822 35.9259 20.0572 35.9259 18.4259C35.9259 16.7947 34.7525 15.5712 33.7165 14.4915ZM18.4259 28.4259C18.0551 28.4259 17.6926 28.3159 17.3842 28.1099C17.0759 27.9039 16.8355 27.611 16.6936 27.2684C16.5517 26.9258 16.5146 26.5488 16.5869 26.1851C16.6593 25.8214 16.8379 25.4873 17.1001 25.2251C17.3623 24.9629 17.6964 24.7843 18.0601 24.7119C18.4238 24.6396 18.8008 24.6767 19.1434 24.8186C19.486 24.9605 19.7789 25.2009 19.9849 25.5092C20.1909 25.8176 20.3009 26.1801 20.3009 26.5509C20.3009 27.0482 20.1034 27.5251 19.7517 27.8767C19.4001 28.2284 18.9232 28.4259 18.4259 28.4259ZM19.6759 20.8134V20.9259C19.6759 21.2574 19.5442 21.5754 19.3098 21.8098C19.0754 22.0442 18.7574 22.1759 18.4259 22.1759C18.0944 22.1759 17.7764 22.0442 17.542 21.8098C17.3076 21.5754 17.1759 21.2574 17.1759 20.9259V19.6759C17.1759 19.3444 17.3076 19.0264 17.542 18.792C17.7764 18.5576 18.0944 18.4259 18.4259 18.4259C20.4931 18.4259 22.1759 17.0197 22.1759 15.3009C22.1759 13.5822 20.4931 12.1759 18.4259 12.1759C16.3587 12.1759 14.6759 13.5822 14.6759 15.3009V15.9259C14.6759 16.2574 14.5442 16.5754 14.3098 16.8098C14.0754 17.0442 13.7574 17.1759 13.4259 17.1759C13.0944 17.1759 12.7764 17.0442 12.542 16.8098C12.3076 16.5754 12.1759 16.2574 12.1759 15.9259V15.3009C12.1759 12.1993 14.979 9.6759 18.4259 9.6759C21.8728 9.6759 24.6759 12.1993 24.6759 15.3009C24.6759 18.0165 22.5259 20.29 19.6759 20.8134Z" fill="#25AD4B"/>
</svg>
