<svg width="36" height="38" viewBox="0 0 36 38" fill="none" xmlns="http://www.w3.org/2000/svg">
<path fill-rule="evenodd" clip-rule="evenodd" d="M19.9575 6.98041C19 6.44737 17.8275 6.44603 16.8711 6.97689L8.54565 11.5979C7.56915 12.1399 6.96659 13.1539 6.96767 14.2532L6.9767 23.43C6.97778 24.5294 7.58234 25.5448 8.5599 26.089L16.8945 30.729C17.852 31.2621 19.0244 31.2634 19.9808 30.7325L28.3063 26.1116C29.2828 25.5696 29.8854 24.5556 29.8843 23.4562L29.8753 14.2794C29.8742 13.18 29.2696 12.1647 28.292 11.6204L19.9575 6.98041ZM19.5341 22.0395C20.6487 22.0407 21.552 21.1336 21.5509 20.0139L21.5486 17.6993C21.5475 16.5809 20.6446 15.6738 19.5312 15.6725L17.3179 15.67C16.2032 15.6687 15.3 16.5759 15.3011 17.6955L15.3034 20.0102C15.3045 21.1285 16.2074 22.0357 17.3207 22.0369L19.5341 22.0395Z" fill="#25AD4B"/>
<path fill-rule="evenodd" clip-rule="evenodd" d="M16.0512 0.669779C17.5119 -0.145258 19.3026 -0.143216 20.7649 0.675161L33.4941 7.79901C34.9872 8.63457 35.9105 10.1935 35.9122 11.8814L35.926 25.9707C35.9277 27.6587 35.0074 29.2155 33.516 30.0476L20.8008 37.1424C19.3401 37.9574 17.5494 37.9554 16.0871 37.137L3.3579 30.0132C1.8649 29.1776 0.941553 27.6187 0.939892 25.9308L0.926028 11.8414C0.924367 10.1535 1.84464 8.59673 3.33601 7.76458L16.0512 0.669779ZM16.4472 3.82415C17.6644 3.1501 19.1566 3.15181 20.3752 3.82864L30.9829 9.72035C32.227 10.4114 32.9965 11.7006 32.9978 13.0966L33.0093 24.7489C33.0107 26.1448 32.2438 27.4323 31.001 28.1205L20.4049 33.988C19.1876 34.6621 17.6954 34.6604 16.4768 33.9835L5.86919 28.0918C4.62503 27.4008 3.85558 26.1115 3.85421 24.7156L3.84274 13.0633C3.84137 11.6674 4.60828 10.3798 5.85108 9.69165L16.4472 3.82415Z" fill="#25AD4B"/>
</svg>
