<svg width="630" height="94" viewBox="0 0 630 94" fill="none" xmlns="http://www.w3.org/2000/svg">
<path fill-rule="evenodd" clip-rule="evenodd" d="M45.7842 7.04826C44.7302 6.58762 43.5014 6.69901 42.5495 7.34149L34.2637 12.9341C33.2919 13.5901 32.7567 14.6995 32.8623 15.8394L33.7438 25.3545C33.8494 26.4945 34.5794 27.4892 35.6556 27.9595L44.8309 31.9693C45.885 32.4299 47.1138 32.3185 48.0657 31.6761L56.3515 26.0834C57.3233 25.4275 57.8584 24.318 57.7528 23.1781L56.8714 13.663C56.7658 12.5231 56.0357 11.5284 54.9596 11.0581L45.7842 7.04826ZM48.8873 22.5128L48.2758 15.9112L41.7278 16.5047L42.3394 23.1064L48.8873 22.5128Z" fill="#161C18"/>
<path fill-rule="evenodd" clip-rule="evenodd" d="M41.091 0.880123C42.5443 -0.105548 44.4211 -0.275677 46.0313 0.432286L60.0481 6.595C61.6921 7.31782 62.8079 8.84552 62.97 10.5957L64.3233 25.2044C64.4855 26.9546 63.669 28.6575 62.1851 29.6638L49.534 38.244C48.0807 39.2296 46.2039 39.3998 44.5937 38.6918L30.5769 32.5291C28.9329 31.8063 27.8171 30.2786 27.655 28.5284L26.3017 13.9196C26.1396 12.1695 26.9561 10.4666 28.4399 9.46027L41.091 0.880123ZM41.8056 4.113C43.0172 3.29695 44.5812 3.15518 45.9226 3.7398L57.5989 8.82891C58.9684 9.42581 59.8973 10.6887 60.0314 12.1361L61.1506 24.218C61.2847 25.6654 60.6033 27.0743 59.3663 27.9075L48.8194 35.0111C47.6078 35.8271 46.0438 35.9689 44.7025 35.3843L33.0261 30.2952C31.6566 29.6983 30.7277 28.4354 30.5937 26.988L29.4744 14.9061C29.3403 13.4587 30.0217 12.0498 31.2587 11.2166L41.8056 4.113Z" fill="#161C18"/>
<path d="M26.2176 31.9426L8.92736 37.3997C8.06858 37.6708 7.33935 38.2403 6.87616 39.0017L0.264899 49.8692C-0.405155 50.9706 0.25943 52.3891 1.54536 52.6022L36.6397 58.4179C37.113 58.4963 37.5834 58.2625 37.8003 57.841L43.8735 46.0397C44.4537 44.9121 45.2531 44.9871 46.3025 45.0857C46.7715 45.1297 47.2904 45.1785 47.862 45.1266C48.4335 45.0748 48.9348 44.9336 49.3879 44.806C50.4017 44.5204 51.174 44.3029 51.9517 45.3074L60.0922 55.8203C60.3828 56.1958 60.8884 56.3411 61.3394 56.1789L94.7806 44.1505C96.0058 43.7097 96.399 42.1953 95.5378 41.2327L87.0397 31.7349C86.4446 31.0694 85.6227 30.6405 84.7286 30.5284L66.3928 28.2293C65.8601 29.6235 64.9013 30.8504 63.6147 31.723L60.9449 33.5337L68.2285 34.5209L51.3377 40.1694C50.7356 40.3708 50.1843 41.1716 49.6298 41.9771C49.0281 42.8512 48.4226 43.7308 47.7442 43.8557C47.0542 43.8548 46.2972 43.0988 45.5449 42.3474C45.1483 41.9513 44.753 41.5564 44.3695 41.2743C44.0979 41.1897 43.8298 41.0895 43.5663 40.9737L43.2561 40.8373L25.8861 38.3592L32.6182 36.1602L29.5495 34.811C28.1493 34.1954 26.9973 33.1867 26.2176 31.9426Z" fill="#161C18"/>
<path d="M45.4108 48.8388C45.7621 48.2063 46.733 48.4037 46.7995 49.1211L50.8831 93.2036C50.9266 93.6727 50.5134 94.0588 50.0397 93.9926L14.6145 89.0314C13.5947 88.8888 12.8087 88.0754 12.7152 87.0663L10.0935 58.7653C9.9608 57.3327 11.2458 56.1648 12.687 56.4081L37.1946 60.5451C38.1319 60.7033 39.0682 60.2577 39.5245 59.4362L45.4108 48.8388Z" fill="url(#paint0_linear_1_303)"/>
<path d="M50.9543 48.3363C50.4927 47.7775 49.5742 48.1461 49.6406 48.8635L53.7243 92.946C53.7677 93.4152 54.245 93.7205 54.6986 93.5703L88.6224 82.3227C89.599 81.9991 90.2225 81.0579 90.129 80.0488L87.5073 51.7477C87.3746 50.3152 85.8962 49.3977 84.524 49.8961L61.1847 58.3704C60.2918 58.6945 59.2892 58.4246 58.6897 57.6989L50.9543 48.3363Z" fill="url(#paint1_linear_1_303)"/>
<path d="M118.701 50.3179C118.383 50.3179 118.098 50.2084 117.844 49.9894C117.59 49.7391 117.463 49.4419 117.463 49.0978V18.6894C117.463 18.3452 117.59 18.0637 117.844 17.8447C118.098 17.5944 118.383 17.4693 118.701 17.4693H133.889C136.778 17.4693 139.143 17.8447 140.984 18.5955C142.825 19.3463 144.19 20.4256 145.078 21.8334C145.967 23.2412 146.411 24.9775 146.411 27.0423C146.411 28.106 146.189 29.0601 145.745 29.9048C145.332 30.7182 144.824 31.4065 144.221 31.9696C143.618 32.5014 143.047 32.8925 142.507 33.1428C143.745 33.6746 144.824 34.5818 145.745 35.8645C146.665 37.1159 147.126 38.555 147.126 40.1817C147.126 42.3717 146.618 44.2174 145.602 45.7191C144.618 47.2207 143.174 48.3626 141.269 49.1447C139.396 49.9268 137.095 50.3179 134.365 50.3179H118.701ZM127.7 43.232H133.27C134.35 43.232 135.143 42.9191 135.651 42.2935C136.159 41.6365 136.413 40.9169 136.413 40.1348C136.413 39.3214 136.143 38.6175 135.603 38.0231C135.064 37.3974 134.286 37.0846 133.27 37.0846H127.7V43.232ZM127.7 30.1864H132.794C133.81 30.1864 134.556 29.9048 135.032 29.3417C135.508 28.7786 135.746 28.1216 135.746 27.3708C135.746 26.62 135.508 25.963 135.032 25.3999C134.556 24.8367 133.81 24.5552 132.794 24.5552H127.7V30.1864Z" fill="#161C18"/>
<path d="M152.446 50.3179C152.097 50.3179 151.796 50.2084 151.542 49.9894C151.32 49.7391 151.208 49.4419 151.208 49.0978V18.2201C151.208 17.876 151.32 17.5944 151.542 17.3754C151.796 17.1251 152.097 17 152.446 17H159.541C159.858 17 160.144 17.1251 160.398 17.3754C160.652 17.5944 160.779 17.876 160.779 18.2201V49.0978C160.779 49.4419 160.652 49.7391 160.398 49.9894C160.144 50.2084 159.858 50.3179 159.541 50.3179H152.446Z" fill="#161C18"/>
<path d="M178.142 50.7872C175.349 50.7872 172.984 50.3805 171.048 49.5671C169.144 48.7537 167.683 47.5649 166.668 46.0007C165.652 44.4051 165.081 42.4968 164.954 40.2756C164.922 39.6186 164.906 38.8991 164.906 38.117C164.906 37.3349 164.922 36.6153 164.954 35.9584C165.081 33.7059 165.684 31.7975 166.763 30.2333C167.842 28.6691 169.334 27.4803 171.239 26.6669C173.175 25.8535 175.476 25.4468 178.142 25.4468C180.809 25.4468 183.094 25.8535 184.999 26.6669C186.935 27.4803 188.443 28.6691 189.522 30.2333C190.601 31.7975 191.204 33.7059 191.331 35.9584C191.395 36.6153 191.426 37.3349 191.426 38.117C191.426 38.8991 191.395 39.6186 191.331 40.2756C191.204 42.4968 190.633 44.4051 189.617 46.0007C188.601 47.5649 187.125 48.7537 185.189 49.5671C183.285 50.3805 180.936 50.7872 178.142 50.7872ZM178.142 44.1705C179.317 44.1705 180.126 43.8264 180.571 43.1381C181.015 42.4499 181.269 41.4175 181.332 40.041C181.364 39.5717 181.38 38.9304 181.38 38.117C181.38 37.3036 181.364 36.6623 181.332 36.193C181.269 34.8478 181.015 33.831 180.571 33.1428C180.126 32.4232 179.317 32.0634 178.142 32.0634C177 32.0634 176.206 32.4232 175.762 33.1428C175.317 33.831 175.048 34.8478 174.952 36.193C174.921 36.6623 174.905 37.3036 174.905 38.117C174.905 38.9304 174.921 39.5717 174.952 40.041C175.048 41.4175 175.317 42.4499 175.762 43.1381C176.206 43.8264 177 44.1705 178.142 44.1705Z" fill="#161C18"/>
<path d="M193.592 50.3179C193.275 50.3179 193.005 50.2084 192.783 49.9894C192.592 49.7704 192.497 49.5201 192.497 49.2386C192.497 49.1447 192.513 49.0352 192.545 48.9101C192.577 48.785 192.64 48.6598 192.735 48.5347L200.544 37.7416L193.497 27.6993C193.434 27.6054 193.37 27.4959 193.307 27.3708C193.275 27.2456 193.259 27.1205 193.259 26.9954C193.259 26.7138 193.37 26.4635 193.592 26.2445C193.815 26.0256 194.068 25.9161 194.354 25.9161H201.639C202.083 25.9161 202.417 26.0256 202.639 26.2445C202.861 26.4323 203.02 26.6043 203.115 26.7607L206.686 31.8757L210.257 26.7607C210.384 26.6043 210.542 26.4323 210.733 26.2445C210.955 26.0256 211.288 25.9161 211.733 25.9161H218.684C218.97 25.9161 219.224 26.0256 219.446 26.2445C219.668 26.4635 219.779 26.6982 219.779 26.9484C219.779 27.1049 219.763 27.2456 219.732 27.3708C219.7 27.4959 219.637 27.6054 219.541 27.6993L212.352 37.7416L220.303 48.5347C220.398 48.6598 220.462 48.785 220.494 48.9101C220.525 49.0352 220.541 49.1447 220.541 49.2386C220.541 49.5201 220.43 49.7704 220.208 49.9894C219.986 50.2084 219.732 50.3179 219.446 50.3179H211.828C211.415 50.3179 211.114 50.224 210.923 50.0363C210.733 49.8486 210.574 49.6766 210.447 49.5201L206.495 44.0767L202.401 49.5201C202.305 49.6766 202.147 49.8486 201.925 50.0363C201.734 50.224 201.433 50.3179 201.02 50.3179H193.592Z" fill="#161C18"/>
<path d="M225.274 50.3179C224.925 50.3179 224.639 50.2084 224.417 49.9894C224.195 49.7704 224.084 49.4889 224.084 49.1447V27.0892C224.084 26.7764 224.195 26.5105 224.417 26.2915C224.639 26.0412 224.925 25.9161 225.274 25.9161H230.749C231.099 25.9161 231.384 26.0412 231.606 26.2915C231.829 26.5105 231.94 26.7764 231.94 27.0892V28.9663C232.797 27.9965 233.812 27.2456 234.987 26.7138C236.193 26.182 237.542 25.9161 239.034 25.9161H241.129C241.446 25.9161 241.716 26.0256 241.938 26.2445C242.192 26.4635 242.319 26.7451 242.319 27.0892V31.9227C242.319 32.2355 242.192 32.5171 241.938 32.7673C241.716 32.9863 241.446 33.0958 241.129 33.0958H236.511C235.209 33.0958 234.193 33.4556 233.463 34.1751C232.765 34.8634 232.416 35.8489 232.416 37.1315V49.1447C232.416 49.4889 232.289 49.7704 232.035 49.9894C231.813 50.2084 231.527 50.3179 231.178 50.3179H225.274Z" fill="url(#paint2_linear_1_303)"/>
<path d="M256.946 50.7872C253.2 50.7872 250.216 49.7861 247.994 47.7839C245.773 45.7817 244.614 42.8096 244.519 38.8678C244.519 38.6488 244.519 38.3673 244.519 38.0231C244.519 37.679 244.519 37.4131 244.519 37.2254C244.614 34.7539 245.169 32.6422 246.185 30.8903C247.233 29.1071 248.661 27.7618 250.47 26.8546C252.311 25.9161 254.454 25.4468 256.898 25.4468C259.691 25.4468 261.993 25.9943 263.802 27.0892C265.643 28.1842 267.024 29.6702 267.944 31.5473C268.865 33.4243 269.325 35.5673 269.325 37.9762V39.1024C269.325 39.4466 269.198 39.7281 268.944 39.9471C268.722 40.1661 268.452 40.2756 268.135 40.2756H252.899C252.899 40.3069 252.899 40.3538 252.899 40.4164C252.899 40.479 252.899 40.5415 252.899 40.6041C252.93 41.5113 253.089 42.3404 253.375 43.0912C253.66 43.842 254.105 44.4364 254.708 44.8744C255.311 45.3124 256.041 45.5314 256.898 45.5314C257.533 45.5314 258.057 45.4375 258.469 45.2498C258.914 45.0308 259.279 44.7962 259.564 44.5459C259.85 44.2644 260.072 44.0297 260.231 43.842C260.517 43.5292 260.739 43.3415 260.898 43.2789C261.088 43.1851 261.374 43.1381 261.755 43.1381H267.659C267.976 43.1381 268.23 43.232 268.42 43.4197C268.643 43.5761 268.738 43.8107 268.706 44.1236C268.674 44.6554 268.405 45.2968 267.897 46.0476C267.389 46.7984 266.643 47.5492 265.659 48.3001C264.707 49.0196 263.5 49.614 262.04 50.0833C260.58 50.5525 258.882 50.7872 256.946 50.7872ZM252.899 35.6299H260.945V35.536C260.945 34.5349 260.786 33.659 260.469 32.9081C260.183 32.1573 259.723 31.5785 259.088 31.1718C258.485 30.7651 257.755 30.5618 256.898 30.5618C256.041 30.5618 255.311 30.7651 254.708 31.1718C254.137 31.5785 253.692 32.1573 253.375 32.9081C253.057 33.659 252.899 34.5349 252.899 35.536V35.6299Z" fill="url(#paint3_linear_1_303)"/>
<path d="M279.949 50.3179C279.472 50.3179 279.123 50.2084 278.901 49.9894C278.679 49.7704 278.504 49.4889 278.377 49.1447L271.521 27.4177C271.458 27.2613 271.426 27.1049 271.426 26.9484C271.426 26.6669 271.537 26.4323 271.759 26.2445C271.981 26.0256 272.235 25.9161 272.521 25.9161H277.425C277.838 25.9161 278.155 26.0256 278.377 26.2445C278.631 26.4635 278.79 26.6825 278.854 26.9015L282.853 40.3225L287.138 26.9484C287.202 26.7295 287.344 26.5105 287.567 26.2915C287.821 26.0412 288.17 25.9161 288.614 25.9161H291.757C292.201 25.9161 292.534 26.0412 292.756 26.2915C293.01 26.5105 293.169 26.7295 293.233 26.9484L297.518 40.3225L301.517 26.9015C301.581 26.6825 301.723 26.4635 301.946 26.2445C302.2 26.0256 302.533 25.9161 302.946 25.9161H307.85C308.135 25.9161 308.373 26.0256 308.564 26.2445C308.786 26.4323 308.897 26.6669 308.897 26.9484C308.897 27.1049 308.881 27.2613 308.85 27.4177L301.993 49.1447C301.898 49.4889 301.724 49.7704 301.47 49.9894C301.247 50.2084 300.898 50.3179 300.422 50.3179H296.137C295.693 50.3179 295.343 50.2084 295.089 49.9894C294.836 49.7704 294.661 49.4889 294.566 49.1447L290.185 36.2868L285.805 49.1447C285.71 49.4889 285.535 49.7704 285.281 49.9894C285.027 50.2084 284.678 50.3179 284.234 50.3179H279.949Z" fill="url(#paint4_linear_1_303)"/>
<path d="M319.53 50.7872C317.816 50.7872 316.276 50.4743 314.911 49.8486C313.578 49.1917 312.515 48.3157 311.721 47.2207C310.928 46.1258 310.531 44.8901 310.531 43.5135C310.531 41.2923 311.451 39.5404 313.292 38.2578C315.133 36.9438 317.578 36.0522 320.625 35.5829L326.576 34.6913V34.0344C326.576 32.9081 326.338 32.0478 325.862 31.4534C325.386 30.859 324.513 30.5618 323.243 30.5618C322.355 30.5618 321.625 30.7339 321.053 31.078C320.514 31.4221 320.085 31.8914 319.768 32.4858C319.482 32.8925 319.085 33.0958 318.577 33.0958H313.245C312.896 33.0958 312.626 33.002 312.435 32.8143C312.245 32.5953 312.166 32.345 312.197 32.0634C312.197 31.5003 312.404 30.859 312.816 30.1395C313.261 29.3886 313.927 28.6534 314.816 27.9339C315.705 27.2144 316.848 26.62 318.244 26.1507C319.641 25.6814 321.323 25.4468 323.291 25.4468C325.354 25.4468 327.116 25.6814 328.576 26.1507C330.036 26.62 331.211 27.2769 332.099 28.1216C333.02 28.9663 333.702 29.9674 334.147 31.1249C334.591 32.2512 334.813 33.5025 334.813 34.879V49.1447C334.813 49.4889 334.686 49.7704 334.432 49.9894C334.21 50.2084 333.94 50.3179 333.623 50.3179H328.1C327.751 50.3179 327.465 50.2084 327.243 49.9894C327.021 49.7704 326.91 49.4889 326.91 49.1447V47.5023C326.497 48.0967 325.942 48.6442 325.243 49.1447C324.545 49.6453 323.72 50.0363 322.767 50.3179C321.847 50.6307 320.768 50.7872 319.53 50.7872ZM321.767 45.4375C322.688 45.4375 323.513 45.2498 324.243 44.8744C325.005 44.4677 325.592 43.8577 326.005 43.0443C326.449 42.1996 326.672 41.1516 326.672 39.9002V39.2432L322.625 39.9471C321.133 40.1974 320.038 40.5884 319.339 41.1203C318.673 41.6208 318.339 42.2152 318.339 42.9035C318.339 43.4353 318.498 43.889 318.815 44.2644C319.133 44.6398 319.546 44.937 320.053 45.156C320.561 45.3437 321.133 45.4375 321.767 45.4375Z" fill="url(#paint5_linear_1_303)"/>
<path d="M341.376 50.3179C341.027 50.3179 340.742 50.2084 340.519 49.9894C340.297 49.7704 340.186 49.4889 340.186 49.1447V27.0892C340.186 26.7764 340.297 26.5105 340.519 26.2915C340.742 26.0412 341.027 25.9161 341.376 25.9161H346.852C347.201 25.9161 347.487 26.0412 347.709 26.2915C347.931 26.5105 348.042 26.7764 348.042 27.0892V28.9663C348.899 27.9965 349.915 27.2456 351.09 26.7138C352.296 26.182 353.645 25.9161 355.137 25.9161H357.232C357.549 25.9161 357.819 26.0256 358.041 26.2445C358.295 26.4635 358.422 26.7451 358.422 27.0892V31.9227C358.422 32.2355 358.295 32.5171 358.041 32.7673C357.819 32.9863 357.549 33.0958 357.232 33.0958H352.613C351.312 33.0958 350.296 33.4556 349.566 34.1751C348.868 34.8634 348.518 35.8489 348.518 37.1315V49.1447C348.518 49.4889 348.391 49.7704 348.138 49.9894C347.915 50.2084 347.63 50.3179 347.28 50.3179H341.376Z" fill="url(#paint6_linear_1_303)"/>
<path d="M370.812 50.7872C369.288 50.7872 367.907 50.5525 366.669 50.0833C365.463 49.5827 364.416 48.8632 363.527 47.9246C362.67 46.9548 362.003 45.7973 361.527 44.4521C361.051 43.0756 360.781 41.5113 360.718 39.7594C360.686 39.1337 360.67 38.5862 360.67 38.117C360.67 37.6164 360.686 37.069 360.718 36.4746C360.781 34.7852 361.051 33.2679 361.527 31.9227C362.003 30.5774 362.67 29.4199 363.527 28.4501C364.384 27.4803 365.431 26.7451 366.669 26.2445C367.907 25.7127 369.288 25.4468 370.812 25.4468C372.399 25.4468 373.764 25.7127 374.906 26.2445C376.049 26.7451 377.017 27.4021 377.811 28.2155V18.1732C377.811 17.829 377.922 17.5475 378.144 17.3285C378.366 17.1095 378.652 17 379.001 17H384.81C385.127 17 385.397 17.1095 385.619 17.3285C385.873 17.5475 386 17.829 386 18.1732V49.1447C386 49.4889 385.873 49.7704 385.619 49.9894C385.397 50.2084 385.127 50.3179 384.81 50.3179H379.429C379.08 50.3179 378.795 50.2084 378.572 49.9894C378.35 49.7704 378.239 49.4889 378.239 49.1447V47.6431C377.477 48.5503 376.493 49.3012 375.287 49.8956C374.081 50.49 372.589 50.7872 370.812 50.7872ZM373.383 44.499C374.462 44.499 375.303 44.28 375.906 43.842C376.541 43.3728 377.001 42.7784 377.287 42.0588C377.604 41.3393 377.779 40.5572 377.811 39.7125C377.842 39.0868 377.858 38.4924 377.858 37.9293C377.858 37.3662 377.842 36.7874 377.811 36.193C377.779 35.4109 377.604 34.6913 377.287 34.0344C376.97 33.3461 376.493 32.7986 375.859 32.3919C375.224 31.9539 374.398 31.735 373.383 31.735C372.335 31.735 371.494 31.9539 370.859 32.3919C370.256 32.8299 369.828 33.4243 369.574 34.1751C369.32 34.926 369.161 35.755 369.098 36.6623C369.002 37.6321 369.002 38.6019 369.098 39.5717C369.161 40.479 369.32 41.308 369.574 42.0588C369.828 42.8096 370.256 43.404 370.859 43.842C371.494 44.28 372.335 44.499 373.383 44.499Z" fill="url(#paint7_linear_1_303)"/>
<path d="M118.475 82.0605C118.292 82.0605 118.142 82.0022 118.025 81.8855C117.908 81.7689 117.85 81.6189 117.85 81.4355V65.1855C117.85 65.0022 117.908 64.8522 118.025 64.7355C118.142 64.6189 118.292 64.5605 118.475 64.5605H129.8C129.983 64.5605 130.133 64.6189 130.25 64.7355C130.367 64.8522 130.425 65.0022 130.425 65.1855V67.1855C130.425 67.3522 130.367 67.4939 130.25 67.6105C130.133 67.7272 129.983 67.7855 129.8 67.7855H121.7V71.7105H129.25C129.433 71.7105 129.583 71.7689 129.7 71.8855C129.817 72.0022 129.875 72.1522 129.875 72.3355V74.1855C129.875 74.3522 129.817 74.4939 129.7 74.6105C129.583 74.7272 129.433 74.7855 129.25 74.7855H121.7V78.8355H130C130.183 78.8355 130.333 78.8939 130.45 79.0105C130.567 79.1272 130.625 79.2772 130.625 79.4605V81.4355C130.625 81.6189 130.567 81.7689 130.45 81.8855C130.333 82.0022 130.183 82.0605 130 82.0605H118.475ZM137.147 82.3105C136.264 82.3105 135.472 82.1439 134.772 81.8105C134.072 81.4605 133.514 80.9939 133.097 80.4105C132.68 79.8272 132.472 79.1772 132.472 78.4605C132.472 77.2772 132.947 76.3439 133.897 75.6605C134.864 74.9772 136.13 74.5105 137.697 74.2605L140.972 73.7855V73.3355C140.972 72.6855 140.822 72.1855 140.522 71.8355C140.222 71.4855 139.697 71.3105 138.947 71.3105C138.397 71.3105 137.955 71.4189 137.622 71.6355C137.289 71.8522 137.03 72.1355 136.847 72.4855C136.714 72.7022 136.522 72.8105 136.272 72.8105H133.897C133.714 72.8105 133.572 72.7605 133.472 72.6605C133.372 72.5439 133.33 72.4105 133.347 72.2605C133.347 71.9772 133.455 71.6439 133.672 71.2605C133.889 70.8772 134.222 70.5022 134.672 70.1355C135.122 69.7522 135.697 69.4355 136.397 69.1855C137.097 68.9355 137.955 68.8105 138.972 68.8105C140.022 68.8105 140.922 68.9355 141.672 69.1855C142.422 69.4355 143.022 69.7855 143.472 70.2355C143.922 70.6855 144.255 71.2105 144.472 71.8105C144.689 72.3939 144.797 73.0272 144.797 73.7105V81.4355C144.797 81.6189 144.739 81.7689 144.622 81.8855C144.505 82.0022 144.355 82.0605 144.172 82.0605H141.722C141.555 82.0605 141.414 82.0022 141.297 81.8855C141.18 81.7689 141.122 81.6189 141.122 81.4355V80.5105C140.905 80.8272 140.614 81.1272 140.247 81.4105C139.88 81.6772 139.439 81.8939 138.922 82.0605C138.422 82.2272 137.83 82.3105 137.147 82.3105ZM138.147 79.7105C138.697 79.7105 139.189 79.5939 139.622 79.3605C140.055 79.1272 140.397 78.7689 140.647 78.2855C140.897 77.8022 141.022 77.1939 141.022 76.4605V76.0355L138.697 76.4105C137.797 76.5605 137.139 76.7855 136.722 77.0855C136.305 77.3855 136.097 77.7522 136.097 78.1855C136.097 78.5022 136.189 78.7772 136.372 79.0105C136.572 79.2439 136.83 79.4189 137.147 79.5355C137.464 79.6522 137.797 79.7105 138.147 79.7105ZM148.424 82.0605C148.257 82.0605 148.116 82.0022 147.999 81.8855C147.882 81.7689 147.824 81.6189 147.824 81.4355V69.6855C147.824 69.5189 147.882 69.3772 147.999 69.2605C148.116 69.1272 148.257 69.0605 148.424 69.0605H150.874C151.041 69.0605 151.182 69.1272 151.299 69.2605C151.432 69.3772 151.499 69.5189 151.499 69.6855V70.6855C151.916 70.1689 152.424 69.7689 153.024 69.4855C153.641 69.2022 154.349 69.0605 155.149 69.0605H156.224C156.391 69.0605 156.532 69.1189 156.649 69.2355C156.766 69.3522 156.824 69.5022 156.824 69.6855V71.8355C156.824 72.0189 156.766 72.1689 156.649 72.2855C156.532 72.4022 156.391 72.4605 156.224 72.4605H154.024C153.291 72.4605 152.716 72.6689 152.299 73.0855C151.882 73.4855 151.674 74.0605 151.674 74.8105V81.4355C151.674 81.6189 151.616 81.7689 151.499 81.8855C151.382 82.0022 151.232 82.0605 151.049 82.0605H148.424ZM159.288 82.0605C159.122 82.0605 158.98 82.0022 158.863 81.8855C158.747 81.7689 158.688 81.6189 158.688 81.4355V69.6855C158.688 69.5022 158.747 69.3522 158.863 69.2355C158.98 69.1189 159.122 69.0605 159.288 69.0605H161.738C161.922 69.0605 162.072 69.1189 162.188 69.2355C162.305 69.3522 162.363 69.5022 162.363 69.6855V70.6605C162.797 70.1272 163.355 69.6855 164.038 69.3355C164.722 68.9855 165.555 68.8105 166.538 68.8105C167.522 68.8105 168.38 69.0355 169.113 69.4855C169.863 69.9189 170.447 70.5605 170.863 71.4105C171.297 72.2439 171.513 73.2605 171.513 74.4605V81.4355C171.513 81.6189 171.447 81.7689 171.313 81.8855C171.197 82.0022 171.055 82.0605 170.888 82.0605H168.238C168.055 82.0605 167.905 82.0022 167.788 81.8855C167.672 81.7689 167.613 81.6189 167.613 81.4355V74.6105C167.613 73.7272 167.397 73.0439 166.963 72.5605C166.547 72.0605 165.93 71.8105 165.113 71.8105C164.33 71.8105 163.705 72.0605 163.238 72.5605C162.772 73.0439 162.538 73.7272 162.538 74.6105V81.4355C162.538 81.6189 162.48 81.7689 162.363 81.8855C162.247 82.0022 162.105 82.0605 161.938 82.0605H159.288ZM180.926 82.0605C180.743 82.0605 180.593 82.0022 180.476 81.8855C180.36 81.7689 180.301 81.6189 180.301 81.4355V65.1855C180.301 65.0022 180.36 64.8522 180.476 64.7355C180.593 64.6189 180.743 64.5605 180.926 64.5605H192.076C192.26 64.5605 192.41 64.6189 192.526 64.7355C192.643 64.8522 192.701 65.0022 192.701 65.1855V67.3105C192.701 67.4939 192.643 67.6439 192.526 67.7605C192.41 67.8772 192.26 67.9355 192.076 67.9355H184.201V72.1605H191.576C191.76 72.1605 191.91 72.2189 192.026 72.3355C192.143 72.4522 192.201 72.6022 192.201 72.7855V74.9105C192.201 75.0772 192.143 75.2189 192.026 75.3355C191.91 75.4522 191.76 75.5105 191.576 75.5105H184.201V81.4355C184.201 81.6189 184.143 81.7689 184.026 81.8855C183.91 82.0022 183.76 82.0605 183.576 82.0605H180.926ZM195.616 82.0605C195.45 82.0605 195.308 82.0022 195.191 81.8855C195.075 81.7689 195.016 81.6189 195.016 81.4355V69.6855C195.016 69.5189 195.075 69.3772 195.191 69.2605C195.308 69.1272 195.45 69.0605 195.616 69.0605H198.066C198.233 69.0605 198.375 69.1272 198.491 69.2605C198.625 69.3772 198.691 69.5189 198.691 69.6855V70.6855C199.108 70.1689 199.616 69.7689 200.216 69.4855C200.833 69.2022 201.541 69.0605 202.341 69.0605H203.416C203.583 69.0605 203.725 69.1189 203.841 69.2355C203.958 69.3522 204.016 69.5022 204.016 69.6855V71.8355C204.016 72.0189 203.958 72.1689 203.841 72.2855C203.725 72.4022 203.583 72.4605 203.416 72.4605H201.216C200.483 72.4605 199.908 72.6689 199.491 73.0855C199.075 73.4855 198.866 74.0605 198.866 74.8105V81.4355C198.866 81.6189 198.808 81.7689 198.691 81.8855C198.575 82.0022 198.425 82.0605 198.241 82.0605H195.616ZM211.534 82.3105C209.618 82.3105 208.093 81.7772 206.959 80.7105C205.843 79.6439 205.251 78.0939 205.184 76.0605C205.184 75.9272 205.184 75.7522 205.184 75.5355C205.184 75.3022 205.184 75.1189 205.184 74.9855C205.251 73.7022 205.543 72.6022 206.059 71.6855C206.576 70.7522 207.301 70.0439 208.234 69.5605C209.168 69.0605 210.259 68.8105 211.509 68.8105C212.909 68.8105 214.076 69.1022 215.009 69.6855C215.959 70.2522 216.668 71.0355 217.134 72.0355C217.618 73.0189 217.859 74.1522 217.859 75.4355V76.0105C217.859 76.1772 217.793 76.3189 217.659 76.4355C217.543 76.5522 217.401 76.6105 217.234 76.6105H209.059C209.059 76.6272 209.059 76.6605 209.059 76.7105C209.059 76.7439 209.059 76.7772 209.059 76.8105C209.076 77.3439 209.176 77.8355 209.359 78.2855C209.559 78.7189 209.834 79.0689 210.184 79.3355C210.551 79.6022 210.984 79.7355 211.484 79.7355C211.901 79.7355 212.243 79.6772 212.509 79.5605C212.776 79.4439 212.993 79.3022 213.159 79.1355C213.343 78.9689 213.476 78.8272 213.559 78.7105C213.709 78.5439 213.826 78.4439 213.909 78.4105C214.009 78.3605 214.159 78.3355 214.359 78.3355H216.959C217.126 78.3355 217.259 78.3855 217.359 78.4855C217.476 78.5689 217.526 78.6939 217.509 78.8605C217.493 79.1272 217.351 79.4605 217.084 79.8605C216.834 80.2439 216.459 80.6272 215.959 81.0105C215.459 81.3772 214.834 81.6855 214.084 81.9355C213.351 82.1855 212.501 82.3105 211.534 82.3105ZM209.059 74.3355H213.959V74.2855C213.959 73.6855 213.859 73.1689 213.659 72.7355C213.476 72.2855 213.201 71.9355 212.834 71.6855C212.468 71.4355 212.026 71.3105 211.509 71.3105C210.993 71.3105 210.551 71.4355 210.184 71.6855C209.818 71.9355 209.534 72.2855 209.334 72.7355C209.151 73.1689 209.059 73.6855 209.059 74.2855V74.3355ZM226.158 82.3105C224.242 82.3105 222.717 81.7772 221.583 80.7105C220.467 79.6439 219.875 78.0939 219.808 76.0605C219.808 75.9272 219.808 75.7522 219.808 75.5355C219.808 75.3022 219.808 75.1189 219.808 74.9855C219.875 73.7022 220.167 72.6022 220.683 71.6855C221.2 70.7522 221.925 70.0439 222.858 69.5605C223.792 69.0605 224.883 68.8105 226.133 68.8105C227.533 68.8105 228.7 69.1022 229.633 69.6855C230.583 70.2522 231.292 71.0355 231.758 72.0355C232.242 73.0189 232.483 74.1522 232.483 75.4355V76.0105C232.483 76.1772 232.417 76.3189 232.283 76.4355C232.167 76.5522 232.025 76.6105 231.858 76.6105H223.683C223.683 76.6272 223.683 76.6605 223.683 76.7105C223.683 76.7439 223.683 76.7772 223.683 76.8105C223.7 77.3439 223.8 77.8355 223.983 78.2855C224.183 78.7189 224.458 79.0689 224.808 79.3355C225.175 79.6022 225.608 79.7355 226.108 79.7355C226.525 79.7355 226.867 79.6772 227.133 79.5605C227.4 79.4439 227.617 79.3022 227.783 79.1355C227.967 78.9689 228.1 78.8272 228.183 78.7105C228.333 78.5439 228.45 78.4439 228.533 78.4105C228.633 78.3605 228.783 78.3355 228.983 78.3355H231.583C231.75 78.3355 231.883 78.3855 231.983 78.4855C232.1 78.5689 232.15 78.6939 232.133 78.8605C232.117 79.1272 231.975 79.4605 231.708 79.8605C231.458 80.2439 231.083 80.6272 230.583 81.0105C230.083 81.3772 229.458 81.6855 228.708 81.9355C227.975 82.1855 227.125 82.3105 226.158 82.3105ZM223.683 74.3355H228.583V74.2855C228.583 73.6855 228.483 73.1689 228.283 72.7355C228.1 72.2855 227.825 71.9355 227.458 71.6855C227.092 71.4355 226.65 71.3105 226.133 71.3105C225.617 71.3105 225.175 71.4355 224.808 71.6855C224.442 71.9355 224.158 72.2855 223.958 72.7355C223.775 73.1689 223.683 73.6855 223.683 74.2855V74.3355ZM241.4 82.0605C241.216 82.0605 241.066 82.0022 240.95 81.8855C240.833 81.7689 240.775 81.6189 240.775 81.4355V65.1855C240.775 65.0022 240.833 64.8522 240.95 64.7355C241.066 64.6189 241.216 64.5605 241.4 64.5605H248.025C250.108 64.5605 251.75 65.0439 252.95 66.0105C254.15 66.9605 254.75 68.3355 254.75 70.1355C254.75 71.3522 254.458 72.3689 253.875 73.1855C253.291 74.0022 252.508 74.6105 251.525 75.0105L255.05 81.2605C255.1 81.3605 255.125 81.4522 255.125 81.5355C255.125 81.6689 255.075 81.7939 254.975 81.9105C254.875 82.0105 254.75 82.0605 254.6 82.0605H251.825C251.525 82.0605 251.3 81.9855 251.15 81.8355C251 81.6689 250.891 81.5189 250.825 81.3855L247.775 75.6605H244.75V81.4355C244.75 81.6189 244.691 81.7689 244.575 81.8855C244.458 82.0022 244.308 82.0605 244.125 82.0605H241.4ZM244.75 72.4855H247.95C248.866 72.4855 249.541 72.2772 249.975 71.8605C250.425 71.4439 250.65 70.8605 250.65 70.1105C250.65 69.3605 250.433 68.7689 250 68.3355C249.566 67.9022 248.883 67.6855 247.95 67.6855H244.75V72.4855ZM263.32 82.3105C261.937 82.3105 260.778 82.0855 259.845 81.6355C258.912 81.1689 258.195 80.5105 257.695 79.6605C257.212 78.8105 256.945 77.8189 256.895 76.6855C256.878 76.3522 256.87 75.9772 256.87 75.5605C256.87 75.1272 256.878 74.7522 256.895 74.4355C256.945 73.2855 257.228 72.2939 257.745 71.4605C258.262 70.6105 258.987 69.9605 259.92 69.5105C260.853 69.0439 261.987 68.8105 263.32 68.8105C264.637 68.8105 265.762 69.0439 266.695 69.5105C267.628 69.9605 268.353 70.6105 268.87 71.4605C269.387 72.2939 269.67 73.2855 269.72 74.4355C269.753 74.7522 269.77 75.1272 269.77 75.5605C269.77 75.9772 269.753 76.3522 269.72 76.6855C269.67 77.8189 269.395 78.8105 268.895 79.6605C268.412 80.5105 267.703 81.1689 266.77 81.6355C265.837 82.0855 264.687 82.3105 263.32 82.3105ZM263.32 79.5605C264.137 79.5605 264.753 79.3105 265.17 78.8105C265.587 78.2939 265.812 77.5439 265.845 76.5605C265.862 76.3105 265.87 75.9772 265.87 75.5605C265.87 75.1439 265.862 74.8105 265.845 74.5605C265.812 73.5939 265.587 72.8522 265.17 72.3355C264.753 71.8189 264.137 71.5605 263.32 71.5605C262.503 71.5605 261.878 71.8189 261.445 72.3355C261.028 72.8522 260.803 73.5939 260.77 74.5605C260.753 74.8105 260.745 75.1439 260.745 75.5605C260.745 75.9772 260.753 76.3105 260.77 76.5605C260.803 77.5439 261.028 78.2939 261.445 78.8105C261.878 79.3105 262.503 79.5605 263.32 79.5605ZM279.935 82.3105C278.985 82.3105 278.193 82.1522 277.56 81.8355C276.926 81.5022 276.41 81.0855 276.01 80.5855V81.4355C276.01 81.6189 275.951 81.7689 275.835 81.8855C275.718 82.0022 275.568 82.0605 275.385 82.0605H273.01C272.826 82.0605 272.676 82.0022 272.56 81.8855C272.443 81.7689 272.385 81.6189 272.385 81.4355V64.9355C272.385 64.7522 272.443 64.6022 272.56 64.4855C272.676 64.3689 272.826 64.3105 273.01 64.3105H275.585C275.751 64.3105 275.893 64.3689 276.01 64.4855C276.126 64.6022 276.185 64.7522 276.185 64.9355V70.3855C276.601 69.9189 277.118 69.5439 277.735 69.2605C278.351 68.9605 279.085 68.8105 279.935 68.8105C280.801 68.8105 281.551 68.9605 282.185 69.2605C282.835 69.5439 283.385 69.9522 283.835 70.4855C284.285 71.0022 284.626 71.6189 284.86 72.3355C285.11 73.0522 285.243 73.8439 285.26 74.7105C285.276 75.0105 285.285 75.2939 285.285 75.5605C285.285 75.8105 285.276 76.0939 285.26 76.4105C285.226 77.2939 285.085 78.1022 284.835 78.8355C284.601 79.5522 284.26 80.1772 283.81 80.7105C283.376 81.2272 282.835 81.6272 282.185 81.9105C281.551 82.1772 280.801 82.3105 279.935 82.3105ZM278.81 79.3105C279.443 79.3105 279.943 79.1772 280.31 78.9105C280.676 78.6272 280.935 78.2605 281.085 77.8105C281.251 77.3605 281.351 76.8689 281.385 76.3355C281.418 75.8189 281.418 75.3022 281.385 74.7855C281.351 74.2522 281.251 73.7605 281.085 73.3105C280.935 72.8605 280.676 72.5022 280.31 72.2355C279.943 71.9522 279.443 71.8105 278.81 71.8105C278.21 71.8105 277.718 71.9439 277.335 72.2105C276.968 72.4772 276.685 72.8189 276.485 73.2355C276.301 73.6355 276.201 74.0689 276.185 74.5355C276.168 74.8355 276.16 75.1439 276.16 75.4605C276.16 75.7772 276.168 76.0939 276.185 76.4105C276.218 76.9105 276.318 77.3772 276.485 77.8105C276.651 78.2439 276.926 78.6022 277.31 78.8855C277.693 79.1689 278.193 79.3105 278.81 79.3105ZM292.711 82.3105C291.745 82.3105 290.886 82.0939 290.136 81.6605C289.403 81.2105 288.828 80.5689 288.411 79.7355C288.011 78.8855 287.811 77.8605 287.811 76.6605V69.6855C287.811 69.5022 287.87 69.3522 287.986 69.2355C288.103 69.1189 288.245 69.0605 288.411 69.0605H291.061C291.245 69.0605 291.395 69.1189 291.511 69.2355C291.628 69.3522 291.686 69.5022 291.686 69.6855V76.5105C291.686 78.3772 292.503 79.3105 294.136 79.3105C294.92 79.3105 295.536 79.0689 295.986 78.5855C296.453 78.0855 296.686 77.3939 296.686 76.5105V69.6855C296.686 69.5022 296.745 69.3522 296.861 69.2355C296.978 69.1189 297.128 69.0605 297.311 69.0605H299.961C300.128 69.0605 300.27 69.1189 300.386 69.2355C300.503 69.3522 300.561 69.5022 300.561 69.6855V81.4355C300.561 81.6189 300.503 81.7689 300.386 81.8855C300.27 82.0022 300.128 82.0605 299.961 82.0605H297.511C297.328 82.0605 297.178 82.0022 297.061 81.8855C296.945 81.7689 296.886 81.6189 296.886 81.4355V80.4605C296.453 81.0605 295.895 81.5189 295.211 81.8355C294.528 82.1522 293.695 82.3105 292.711 82.3105ZM303.158 82.0605C303.008 82.0605 302.874 82.0105 302.758 81.9105C302.658 81.7939 302.608 81.6605 302.608 81.5105C302.608 81.4605 302.616 81.4022 302.633 81.3355C302.666 81.2522 302.708 81.1772 302.758 81.1105L306.983 75.3855L303.108 70.0105C303.058 69.9439 303.016 69.8772 302.983 69.8105C302.966 69.7439 302.958 69.6772 302.958 69.6105C302.958 69.4605 303.008 69.3355 303.108 69.2355C303.224 69.1189 303.358 69.0605 303.508 69.0605H306.108C306.308 69.0605 306.458 69.1105 306.558 69.2105C306.674 69.3105 306.758 69.4022 306.808 69.4855L309.383 72.9855L311.958 69.5105C312.024 69.4272 312.108 69.3355 312.208 69.2355C312.308 69.1189 312.466 69.0605 312.683 69.0605H315.158C315.308 69.0605 315.433 69.1189 315.533 69.2355C315.649 69.3355 315.708 69.4605 315.708 69.6105C315.708 69.6772 315.699 69.7439 315.683 69.8105C315.666 69.8772 315.624 69.9439 315.558 70.0105L311.608 75.4105L315.883 81.1105C315.933 81.1772 315.966 81.2439 315.983 81.3105C316.016 81.3772 316.033 81.4439 316.033 81.5105C316.033 81.6605 315.974 81.7939 315.858 81.9105C315.758 82.0105 315.633 82.0605 315.483 82.0605H312.758C312.574 82.0605 312.433 82.0189 312.333 81.9355C312.233 81.8355 312.149 81.7439 312.083 81.6605L309.308 77.9605L306.483 81.6605C306.433 81.7272 306.358 81.8105 306.258 81.9105C306.158 82.0105 306.008 82.0605 305.808 82.0605H303.158ZM322.221 82.0605C322.071 82.0605 321.946 82.0105 321.846 81.9105C321.746 81.7939 321.696 81.6689 321.696 81.5355C321.696 81.4522 321.704 81.3772 321.721 81.3105L327.671 65.2355C327.721 65.0522 327.821 64.8939 327.971 64.7605C328.121 64.6272 328.329 64.5605 328.596 64.5605H331.796C332.062 64.5605 332.271 64.6272 332.421 64.7605C332.571 64.8939 332.671 65.0522 332.721 65.2355L338.671 81.3105C338.687 81.3772 338.696 81.4522 338.696 81.5355C338.696 81.6689 338.646 81.7939 338.546 81.9105C338.446 82.0105 338.321 82.0605 338.171 82.0605H335.571C335.321 82.0605 335.137 82.0022 335.021 81.8855C334.904 81.7689 334.829 81.6605 334.796 81.5605L333.721 78.7605H326.671L325.596 81.5605C325.562 81.6605 325.487 81.7689 325.371 81.8855C325.254 82.0022 325.071 82.0605 324.821 82.0605H322.221ZM327.596 75.5355H332.771L330.196 68.3355L327.596 75.5355ZM341.173 82.0605C341.006 82.0605 340.865 82.0022 340.748 81.8855C340.631 81.7689 340.573 81.6189 340.573 81.4355V69.6855C340.573 69.5022 340.631 69.3522 340.748 69.2355C340.865 69.1189 341.006 69.0605 341.173 69.0605H343.623C343.806 69.0605 343.956 69.1189 344.073 69.2355C344.19 69.3522 344.248 69.5022 344.248 69.6855V70.6605C344.681 70.1272 345.24 69.6855 345.923 69.3355C346.606 68.9855 347.44 68.8105 348.423 68.8105C349.406 68.8105 350.265 69.0355 350.998 69.4855C351.748 69.9189 352.331 70.5605 352.748 71.4105C353.181 72.2439 353.398 73.2605 353.398 74.4605V81.4355C353.398 81.6189 353.331 81.7689 353.198 81.8855C353.081 82.0022 352.94 82.0605 352.773 82.0605H350.123C349.94 82.0605 349.79 82.0022 349.673 81.8855C349.556 81.7689 349.498 81.6189 349.498 81.4355V74.6105C349.498 73.7272 349.281 73.0439 348.848 72.5605C348.431 72.0605 347.815 71.8105 346.998 71.8105C346.215 71.8105 345.59 72.0605 345.123 72.5605C344.656 73.0439 344.423 73.7272 344.423 74.6105V81.4355C344.423 81.6189 344.365 81.7689 344.248 81.8855C344.131 82.0022 343.99 82.0605 343.823 82.0605H341.173ZM358.329 86.8105C358.196 86.8105 358.071 86.7605 357.954 86.6605C357.854 86.5605 357.804 86.4355 357.804 86.2855C357.804 86.2522 357.812 86.2022 357.829 86.1355C357.846 86.0855 357.871 86.0189 357.904 85.9355L359.854 81.2605L355.054 69.9355C355.004 69.8022 354.979 69.6939 354.979 69.6105C354.996 69.4605 355.054 69.3355 355.154 69.2355C355.254 69.1189 355.379 69.0605 355.529 69.0605H357.954C358.171 69.0605 358.329 69.1189 358.429 69.2355C358.529 69.3355 358.604 69.4439 358.654 69.5605L361.754 77.3105L364.929 69.5605C364.996 69.4272 365.079 69.3105 365.179 69.2105C365.279 69.1105 365.437 69.0605 365.654 69.0605H368.029C368.179 69.0605 368.304 69.1189 368.404 69.2355C368.521 69.3355 368.579 69.4522 368.579 69.5855C368.579 69.6689 368.546 69.7855 368.479 69.9355L361.404 86.3105C361.354 86.4439 361.271 86.5605 361.154 86.6605C361.054 86.7605 360.896 86.8105 360.679 86.8105H358.329ZM376.828 82.0605C375.795 82.0605 374.911 81.8939 374.178 81.5605C373.445 81.2105 372.886 80.6772 372.503 79.9605C372.136 79.2439 371.953 78.3439 371.953 77.2605V72.0105H370.003C369.82 72.0105 369.67 71.9522 369.553 71.8355C369.436 71.7189 369.378 71.5689 369.378 71.3855V69.6855C369.378 69.5022 369.436 69.3522 369.553 69.2355C369.67 69.1189 369.82 69.0605 370.003 69.0605H371.953V64.9355C371.953 64.7522 372.011 64.6022 372.128 64.4855C372.261 64.3689 372.411 64.3105 372.578 64.3105H375.028C375.211 64.3105 375.361 64.3689 375.478 64.4855C375.595 64.6022 375.653 64.7522 375.653 64.9355V69.0605H378.778C378.945 69.0605 379.086 69.1189 379.203 69.2355C379.32 69.3522 379.378 69.5022 379.378 69.6855V71.3855C379.378 71.5689 379.32 71.7189 379.203 71.8355C379.086 71.9522 378.945 72.0105 378.778 72.0105H375.653V76.9605C375.653 77.5939 375.761 78.0939 375.978 78.4605C376.211 78.8105 376.611 78.9855 377.178 78.9855H379.003C379.17 78.9855 379.311 79.0439 379.428 79.1605C379.545 79.2772 379.603 79.4189 379.603 79.5855V81.4355C379.603 81.6189 379.545 81.7689 379.428 81.8855C379.311 82.0022 379.17 82.0605 379.003 82.0605H376.828ZM382.384 82.0605C382.217 82.0605 382.076 82.0022 381.959 81.8855C381.842 81.7689 381.784 81.6189 381.784 81.4355V69.6855C381.784 69.5022 381.842 69.3522 381.959 69.2355C382.076 69.1189 382.217 69.0605 382.384 69.0605H384.884C385.067 69.0605 385.217 69.1189 385.334 69.2355C385.451 69.3522 385.509 69.5022 385.509 69.6855V81.4355C385.509 81.6189 385.451 81.7689 385.334 81.8855C385.217 82.0022 385.067 82.0605 384.884 82.0605H382.384ZM382.309 67.0605C382.142 67.0605 382.001 67.0022 381.884 66.8855C381.767 66.7689 381.709 66.6189 381.709 66.4355V64.4355C381.709 64.2522 381.767 64.1022 381.884 63.9855C382.001 63.8522 382.142 63.7855 382.309 63.7855H384.934C385.117 63.7855 385.267 63.8522 385.384 63.9855C385.517 64.1022 385.584 64.2522 385.584 64.4355V66.4355C385.584 66.6189 385.517 66.7689 385.384 66.8855C385.267 67.0022 385.117 67.0605 384.934 67.0605H382.309ZM389.879 82.0605C389.712 82.0605 389.571 82.0022 389.454 81.8855C389.337 81.7689 389.279 81.6189 389.279 81.4355V69.6855C389.279 69.5022 389.337 69.3522 389.454 69.2355C389.571 69.1189 389.712 69.0605 389.879 69.0605H392.204C392.371 69.0605 392.512 69.1189 392.629 69.2355C392.762 69.3522 392.829 69.5022 392.829 69.6855V70.5355C393.162 70.0689 393.621 69.6689 394.204 69.3355C394.804 69.0022 395.512 68.8272 396.329 68.8105C398.262 68.7772 399.587 69.5105 400.304 71.0105C400.687 70.3605 401.237 69.8355 401.954 69.4355C402.687 69.0189 403.487 68.8105 404.354 68.8105C405.221 68.8105 406.004 69.0105 406.704 69.4105C407.404 69.7939 407.954 70.3939 408.354 71.2105C408.771 72.0105 408.979 73.0439 408.979 74.3105V81.4355C408.979 81.6189 408.921 81.7689 408.804 81.8855C408.687 82.0022 408.546 82.0605 408.379 82.0605H405.904C405.737 82.0605 405.596 82.0022 405.479 81.8855C405.362 81.7689 405.304 81.6189 405.304 81.4355V74.5105C405.304 73.8272 405.204 73.2939 405.004 72.9105C404.804 72.5105 404.537 72.2272 404.204 72.0605C403.887 71.8939 403.529 71.8105 403.129 71.8105C402.779 71.8105 402.437 71.8939 402.104 72.0605C401.787 72.2272 401.521 72.5105 401.304 72.9105C401.104 73.2939 401.004 73.8272 401.004 74.5105V81.4355C401.004 81.6189 400.946 81.7689 400.829 81.8855C400.712 82.0022 400.562 82.0605 400.379 82.0605H397.929C397.746 82.0605 397.596 82.0022 397.479 81.8855C397.362 81.7689 397.304 81.6189 397.304 81.4355V74.5105C397.304 73.8272 397.204 73.2939 397.004 72.9105C396.804 72.5105 396.537 72.2272 396.204 72.0605C395.887 71.8939 395.537 71.8105 395.154 71.8105C394.804 71.8105 394.462 71.9022 394.129 72.0855C393.796 72.2522 393.521 72.5272 393.304 72.9105C393.104 73.2939 393.004 73.8189 393.004 74.4855V81.4355C393.004 81.6189 392.946 81.7689 392.829 81.8855C392.712 82.0022 392.571 82.0605 392.404 82.0605H389.879ZM417.809 82.3105C415.892 82.3105 414.367 81.7772 413.234 80.7105C412.117 79.6439 411.525 78.0939 411.459 76.0605C411.459 75.9272 411.459 75.7522 411.459 75.5355C411.459 75.3022 411.459 75.1189 411.459 74.9855C411.525 73.7022 411.817 72.6022 412.334 71.6855C412.85 70.7522 413.575 70.0439 414.509 69.5605C415.442 69.0605 416.534 68.8105 417.784 68.8105C419.184 68.8105 420.35 69.1022 421.284 69.6855C422.234 70.2522 422.942 71.0355 423.409 72.0355C423.892 73.0189 424.134 74.1522 424.134 75.4355V76.0105C424.134 76.1772 424.067 76.3189 423.934 76.4355C423.817 76.5522 423.675 76.6105 423.509 76.6105H415.334C415.334 76.6272 415.334 76.6605 415.334 76.7105C415.334 76.7439 415.334 76.7772 415.334 76.8105C415.35 77.3439 415.45 77.8355 415.634 78.2855C415.834 78.7189 416.109 79.0689 416.459 79.3355C416.825 79.6022 417.259 79.7355 417.759 79.7355C418.175 79.7355 418.517 79.6772 418.784 79.5605C419.05 79.4439 419.267 79.3022 419.434 79.1355C419.617 78.9689 419.75 78.8272 419.834 78.7105C419.984 78.5439 420.1 78.4439 420.184 78.4105C420.284 78.3605 420.434 78.3355 420.634 78.3355H423.234C423.4 78.3355 423.534 78.3855 423.634 78.4855C423.75 78.5689 423.8 78.6939 423.784 78.8605C423.767 79.1272 423.625 79.4605 423.359 79.8605C423.109 80.2439 422.734 80.6272 422.234 81.0105C421.734 81.3772 421.109 81.6855 420.359 81.9355C419.625 82.1855 418.775 82.3105 417.809 82.3105ZM415.334 74.3355H420.234V74.2855C420.234 73.6855 420.134 73.1689 419.934 72.7355C419.75 72.2855 419.475 71.9355 419.109 71.6855C418.742 71.4355 418.3 71.3105 417.784 71.3105C417.267 71.3105 416.825 71.4355 416.459 71.6855C416.092 71.9355 415.809 72.2855 415.609 72.7355C415.425 73.1689 415.334 73.6855 415.334 74.2855V74.3355ZM426.458 83.9355C426.324 83.9355 426.208 83.8772 426.108 83.7605C426.024 83.6605 425.991 83.5355 426.008 83.3855L426.708 78.8355C426.741 78.6189 426.824 78.4272 426.958 78.2605C427.091 78.0939 427.291 78.0105 427.558 78.0105H430.158C430.291 78.0105 430.399 78.0605 430.483 78.1605C430.583 78.2439 430.633 78.3522 430.633 78.4855C430.633 78.5855 430.616 78.6855 430.583 78.7855L428.833 83.2605C428.766 83.4272 428.666 83.5772 428.533 83.7105C428.416 83.8605 428.224 83.9355 427.958 83.9355H426.458ZM437.553 82.0605C437.403 82.0605 437.278 82.0105 437.178 81.9105C437.078 81.7939 437.028 81.6689 437.028 81.5355C437.028 81.4522 437.036 81.3772 437.053 81.3105L443.003 65.2355C443.053 65.0522 443.153 64.8939 443.303 64.7605C443.453 64.6272 443.661 64.5605 443.928 64.5605H447.128C447.394 64.5605 447.603 64.6272 447.753 64.7605C447.903 64.8939 448.003 65.0522 448.053 65.2355L454.003 81.3105C454.019 81.3772 454.028 81.4522 454.028 81.5355C454.028 81.6689 453.978 81.7939 453.878 81.9105C453.778 82.0105 453.653 82.0605 453.503 82.0605H450.903C450.653 82.0605 450.469 82.0022 450.353 81.8855C450.236 81.7689 450.161 81.6605 450.128 81.5605L449.053 78.7605H442.003L440.928 81.5605C440.894 81.6605 440.819 81.7689 440.703 81.8855C440.586 82.0022 440.403 82.0605 440.153 82.0605H437.553ZM442.928 75.5355H448.103L445.528 68.3355L442.928 75.5355ZM456.505 82.0605C456.338 82.0605 456.197 82.0022 456.08 81.8855C455.963 81.7689 455.905 81.6189 455.905 81.4355V69.6855C455.905 69.5022 455.963 69.3522 456.08 69.2355C456.197 69.1189 456.338 69.0605 456.505 69.0605H458.955C459.138 69.0605 459.288 69.1189 459.405 69.2355C459.522 69.3522 459.58 69.5022 459.58 69.6855V70.6605C460.013 70.1272 460.572 69.6855 461.255 69.3355C461.938 68.9855 462.772 68.8105 463.755 68.8105C464.738 68.8105 465.597 69.0355 466.33 69.4855C467.08 69.9189 467.663 70.5605 468.08 71.4105C468.513 72.2439 468.73 73.2605 468.73 74.4605V81.4355C468.73 81.6189 468.663 81.7689 468.53 81.8855C468.413 82.0022 468.272 82.0605 468.105 82.0605H465.455C465.272 82.0605 465.122 82.0022 465.005 81.8855C464.888 81.7689 464.83 81.6189 464.83 81.4355V74.6105C464.83 73.7272 464.613 73.0439 464.18 72.5605C463.763 72.0605 463.147 71.8105 462.33 71.8105C461.547 71.8105 460.922 72.0605 460.455 72.5605C459.988 73.0439 459.755 73.7272 459.755 74.6105V81.4355C459.755 81.6189 459.697 81.7689 459.58 81.8855C459.463 82.0022 459.322 82.0605 459.155 82.0605H456.505ZM473.661 86.8105C473.528 86.8105 473.403 86.7605 473.286 86.6605C473.186 86.5605 473.136 86.4355 473.136 86.2855C473.136 86.2522 473.144 86.2022 473.161 86.1355C473.178 86.0855 473.203 86.0189 473.236 85.9355L475.186 81.2605L470.386 69.9355C470.336 69.8022 470.311 69.6939 470.311 69.6105C470.328 69.4605 470.386 69.3355 470.486 69.2355C470.586 69.1189 470.711 69.0605 470.861 69.0605H473.286C473.503 69.0605 473.661 69.1189 473.761 69.2355C473.861 69.3355 473.936 69.4439 473.986 69.5605L477.086 77.3105L480.261 69.5605C480.328 69.4272 480.411 69.3105 480.511 69.2105C480.611 69.1105 480.769 69.0605 480.986 69.0605H483.361C483.511 69.0605 483.636 69.1189 483.736 69.2355C483.853 69.3355 483.911 69.4522 483.911 69.5855C483.911 69.6689 483.878 69.7855 483.811 69.9355L476.736 86.3105C476.686 86.4439 476.603 86.5605 476.486 86.6605C476.386 86.7605 476.228 86.8105 476.011 86.8105H473.661ZM489.485 82.0605C489.252 82.0605 489.068 82.0022 488.935 81.8855C488.818 81.7689 488.727 81.6189 488.66 81.4355L485.085 69.8605C485.052 69.7772 485.035 69.6939 485.035 69.6105C485.035 69.4605 485.085 69.3355 485.185 69.2355C485.302 69.1189 485.435 69.0605 485.585 69.0605H487.785C488.002 69.0605 488.168 69.1189 488.285 69.2355C488.402 69.3522 488.477 69.4605 488.51 69.5605L490.785 77.2855L493.21 69.6105C493.243 69.4939 493.318 69.3772 493.435 69.2605C493.568 69.1272 493.752 69.0605 493.985 69.0605H495.41C495.643 69.0605 495.818 69.1272 495.935 69.2605C496.068 69.3772 496.152 69.4939 496.185 69.6105L498.61 77.2855L500.885 69.5605C500.902 69.4605 500.968 69.3522 501.085 69.2355C501.218 69.1189 501.385 69.0605 501.585 69.0605H503.785C503.935 69.0605 504.06 69.1189 504.16 69.2355C504.277 69.3355 504.335 69.4605 504.335 69.6105C504.335 69.6939 504.327 69.7772 504.31 69.8605L500.71 81.4355C500.66 81.6189 500.568 81.7689 500.435 81.8855C500.318 82.0022 500.143 82.0605 499.91 82.0605H497.985C497.752 82.0605 497.568 82.0022 497.435 81.8855C497.302 81.7689 497.202 81.6189 497.135 81.4355L494.71 74.0355L492.235 81.4355C492.185 81.6189 492.093 81.7689 491.96 81.8855C491.827 82.0022 491.643 82.0605 491.41 82.0605H489.485ZM507.263 82.0605C507.079 82.0605 506.929 82.0022 506.813 81.8855C506.696 81.7689 506.638 81.6189 506.638 81.4355V64.9355C506.638 64.7522 506.696 64.6022 506.813 64.4855C506.929 64.3689 507.079 64.3105 507.263 64.3105H509.963C510.129 64.3105 510.271 64.3689 510.388 64.4855C510.504 64.6022 510.563 64.7522 510.563 64.9355V70.5605C511.013 70.0272 511.563 69.6022 512.213 69.2855C512.863 68.9689 513.646 68.8105 514.563 68.8105C515.546 68.8105 516.413 69.0355 517.163 69.4855C517.929 69.9189 518.529 70.5605 518.963 71.4105C519.396 72.2439 519.613 73.2605 519.613 74.4605V81.4355C519.613 81.6189 519.554 81.7689 519.438 81.8855C519.321 82.0022 519.171 82.0605 518.988 82.0605H516.263C516.096 82.0605 515.954 82.0022 515.838 81.8855C515.721 81.7689 515.663 81.6189 515.663 81.4355V74.6105C515.663 73.7272 515.446 73.0439 515.013 72.5605C514.579 72.0605 513.963 71.8105 513.163 71.8105C512.379 71.8105 511.746 72.0605 511.263 72.5605C510.796 73.0439 510.563 73.7272 510.563 74.6105V81.4355C510.563 81.6189 510.504 81.7689 510.388 81.8855C510.271 82.0022 510.129 82.0605 509.963 82.0605H507.263ZM528.404 82.3105C526.488 82.3105 524.963 81.7772 523.829 80.7105C522.713 79.6439 522.121 78.0939 522.054 76.0605C522.054 75.9272 522.054 75.7522 522.054 75.5355C522.054 75.3022 522.054 75.1189 522.054 74.9855C522.121 73.7022 522.413 72.6022 522.929 71.6855C523.446 70.7522 524.171 70.0439 525.104 69.5605C526.038 69.0605 527.129 68.8105 528.379 68.8105C529.779 68.8105 530.946 69.1022 531.879 69.6855C532.829 70.2522 533.538 71.0355 534.004 72.0355C534.488 73.0189 534.729 74.1522 534.729 75.4355V76.0105C534.729 76.1772 534.663 76.3189 534.529 76.4355C534.413 76.5522 534.271 76.6105 534.104 76.6105H525.929C525.929 76.6272 525.929 76.6605 525.929 76.7105C525.929 76.7439 525.929 76.7772 525.929 76.8105C525.946 77.3439 526.046 77.8355 526.229 78.2855C526.429 78.7189 526.704 79.0689 527.054 79.3355C527.421 79.6022 527.854 79.7355 528.354 79.7355C528.771 79.7355 529.113 79.6772 529.379 79.5605C529.646 79.4439 529.863 79.3022 530.029 79.1355C530.213 78.9689 530.346 78.8272 530.429 78.7105C530.579 78.5439 530.696 78.4439 530.779 78.4105C530.879 78.3605 531.029 78.3355 531.229 78.3355H533.829C533.996 78.3355 534.129 78.3855 534.229 78.4855C534.346 78.5689 534.396 78.6939 534.379 78.8605C534.363 79.1272 534.221 79.4605 533.954 79.8605C533.704 80.2439 533.329 80.6272 532.829 81.0105C532.329 81.3772 531.704 81.6855 530.954 81.9355C530.221 82.1855 529.371 82.3105 528.404 82.3105ZM525.929 74.3355H530.829V74.2855C530.829 73.6855 530.729 73.1689 530.529 72.7355C530.346 72.2855 530.071 71.9355 529.704 71.6855C529.338 71.4355 528.896 71.3105 528.379 71.3105C527.863 71.3105 527.421 71.4355 527.054 71.6855C526.688 71.9355 526.404 72.2855 526.204 72.7355C526.021 73.1689 525.929 73.6855 525.929 74.2855V74.3355ZM537.828 82.0605C537.662 82.0605 537.52 82.0022 537.403 81.8855C537.287 81.7689 537.228 81.6189 537.228 81.4355V69.6855C537.228 69.5189 537.287 69.3772 537.403 69.2605C537.52 69.1272 537.662 69.0605 537.828 69.0605H540.278C540.445 69.0605 540.587 69.1272 540.703 69.2605C540.837 69.3772 540.903 69.5189 540.903 69.6855V70.6855C541.32 70.1689 541.828 69.7689 542.428 69.4855C543.045 69.2022 543.753 69.0605 544.553 69.0605H545.628C545.795 69.0605 545.937 69.1189 546.053 69.2355C546.17 69.3522 546.228 69.5022 546.228 69.6855V71.8355C546.228 72.0189 546.17 72.1689 546.053 72.2855C545.937 72.4022 545.795 72.4605 545.628 72.4605H543.428C542.695 72.4605 542.12 72.6689 541.703 73.0855C541.287 73.4855 541.078 74.0605 541.078 74.8105V81.4355C541.078 81.6189 541.02 81.7689 540.903 81.8855C540.787 82.0022 540.637 82.0605 540.453 82.0605H537.828ZM553.746 82.3105C551.829 82.3105 550.304 81.7772 549.171 80.7105C548.054 79.6439 547.463 78.0939 547.396 76.0605C547.396 75.9272 547.396 75.7522 547.396 75.5355C547.396 75.3022 547.396 75.1189 547.396 74.9855C547.463 73.7022 547.754 72.6022 548.271 71.6855C548.788 70.7522 549.513 70.0439 550.446 69.5605C551.379 69.0605 552.471 68.8105 553.721 68.8105C555.121 68.8105 556.288 69.1022 557.221 69.6855C558.171 70.2522 558.879 71.0355 559.346 72.0355C559.829 73.0189 560.071 74.1522 560.071 75.4355V76.0105C560.071 76.1772 560.004 76.3189 559.871 76.4355C559.754 76.5522 559.613 76.6105 559.446 76.6105H551.271C551.271 76.6272 551.271 76.6605 551.271 76.7105C551.271 76.7439 551.271 76.7772 551.271 76.8105C551.288 77.3439 551.388 77.8355 551.571 78.2855C551.771 78.7189 552.046 79.0689 552.396 79.3355C552.763 79.6022 553.196 79.7355 553.696 79.7355C554.113 79.7355 554.454 79.6772 554.721 79.5605C554.988 79.4439 555.204 79.3022 555.371 79.1355C555.554 78.9689 555.688 78.8272 555.771 78.7105C555.921 78.5439 556.038 78.4439 556.121 78.4105C556.221 78.3605 556.371 78.3355 556.571 78.3355H559.171C559.338 78.3355 559.471 78.3855 559.571 78.4855C559.688 78.5689 559.738 78.6939 559.721 78.8605C559.704 79.1272 559.563 79.4605 559.296 79.8605C559.046 80.2439 558.671 80.6272 558.171 81.0105C557.671 81.3772 557.046 81.6855 556.296 81.9355C555.563 82.1855 554.713 82.3105 553.746 82.3105ZM551.271 74.3355H556.171V74.2855C556.171 73.6855 556.071 73.1689 555.871 72.7355C555.688 72.2855 555.413 71.9355 555.046 71.6855C554.679 71.4355 554.238 71.3105 553.721 71.3105C553.204 71.3105 552.763 71.4355 552.396 71.6855C552.029 71.9355 551.746 72.2855 551.546 72.7355C551.363 73.1689 551.271 73.6855 551.271 74.2855V74.3355ZM563.27 76.8855C563.087 76.8855 562.937 76.8272 562.82 76.7105C562.703 76.5939 562.645 76.4439 562.645 76.2605V65.1855C562.645 65.0022 562.703 64.8522 562.82 64.7355C562.937 64.6189 563.087 64.5605 563.27 64.5605H565.695C565.878 64.5605 566.028 64.6189 566.145 64.7355C566.262 64.8522 566.32 65.0022 566.32 65.1855V76.2605C566.32 76.4439 566.262 76.5939 566.145 76.7105C566.028 76.8272 565.878 76.8855 565.695 76.8855H563.27ZM563.12 82.0605C562.953 82.0605 562.812 82.0022 562.695 81.8855C562.578 81.7689 562.52 81.6189 562.52 81.4355V78.7605C562.52 78.5772 562.578 78.4272 562.695 78.3105C562.812 78.1939 562.953 78.1355 563.12 78.1355H565.82C566.003 78.1355 566.153 78.1939 566.27 78.3105C566.387 78.4272 566.445 78.5772 566.445 78.7605V81.4355C566.445 81.6189 566.387 81.7689 566.27 81.8855C566.153 82.0022 566.003 82.0605 565.82 82.0605H563.12Z" fill="#161C18" fill-opacity="0.75"/>
<defs>
<linearGradient id="paint0_linear_1_303" x1="48.1696" y1="44.1464" x2="52.8218" y2="94.009" gradientUnits="userSpaceOnUse">
<stop stop-color="#29B851"/>
<stop offset="1" stop-color="#25AD4B"/>
</linearGradient>
<linearGradient id="paint1_linear_1_303" x1="48.1696" y1="44.1464" x2="52.8218" y2="94.009" gradientUnits="userSpaceOnUse">
<stop stop-color="#29B851"/>
<stop offset="1" stop-color="#25AD4B"/>
</linearGradient>
<linearGradient id="paint2_linear_1_303" x1="305.16" y1="24.1963" x2="305.16" y2="50.3177" gradientUnits="userSpaceOnUse">
<stop stop-color="#29B851"/>
<stop offset="1" stop-color="#25A44C"/>
</linearGradient>
<linearGradient id="paint3_linear_1_303" x1="305.16" y1="24.1963" x2="305.16" y2="50.3177" gradientUnits="userSpaceOnUse">
<stop stop-color="#29B851"/>
<stop offset="1" stop-color="#25A44C"/>
</linearGradient>
<linearGradient id="paint4_linear_1_303" x1="305.16" y1="24.1963" x2="305.16" y2="50.3177" gradientUnits="userSpaceOnUse">
<stop stop-color="#29B851"/>
<stop offset="1" stop-color="#25A44C"/>
</linearGradient>
<linearGradient id="paint5_linear_1_303" x1="305.16" y1="24.1963" x2="305.16" y2="50.3177" gradientUnits="userSpaceOnUse">
<stop stop-color="#29B851"/>
<stop offset="1" stop-color="#25A44C"/>
</linearGradient>
<linearGradient id="paint6_linear_1_303" x1="305.16" y1="24.1963" x2="305.16" y2="50.3177" gradientUnits="userSpaceOnUse">
<stop stop-color="#29B851"/>
<stop offset="1" stop-color="#25A44C"/>
</linearGradient>
<linearGradient id="paint7_linear_1_303" x1="305.16" y1="24.1963" x2="305.16" y2="50.3177" gradientUnits="userSpaceOnUse">
<stop stop-color="#29B851"/>
<stop offset="1" stop-color="#25A44C"/>
</linearGradient>
</defs>
</svg>
