<svg width="737" height="609" viewBox="0 0 737 609" fill="none" xmlns="http://www.w3.org/2000/svg">
<path d="M192.72 268.958L60.5205 325.709C53.9543 328.527 48.6425 333.621 45.5792 340.037L1.85608 431.604C-2.5753 440.884 3.77174 451.658 14.085 452.362L295.543 471.581C299.339 471.84 302.869 469.617 304.254 466.096L343.005 367.513C346.707 358.094 353.073 358.075 361.431 358.05C365.166 358.039 369.299 358.026 373.769 357.174C378.239 356.321 382.085 354.811 385.561 353.446C393.34 350.392 399.265 348.066 406.183 355.459L478.593 432.832C481.178 435.595 485.281 436.362 488.714 434.723L743.256 313.235C752.582 308.783 754.507 296.431 746.963 289.435L672.52 220.415C667.306 215.579 660.487 212.799 653.344 212.596L506.865 208.439C503.745 219.943 497.133 230.444 487.658 238.379L467.998 254.845L526.242 257.084L397.343 315.051C392.748 317.117 389.02 323.914 385.271 330.75C381.202 338.169 377.108 345.635 371.852 347.152C366.406 347.677 359.845 342.244 353.324 336.846C349.886 334 346.46 331.163 343.214 329.214C341.006 328.75 338.812 328.16 336.643 327.441L334.089 326.595L195.092 320.269L246.507 297.582L221.242 289.212C209.714 285.393 199.84 278.256 192.72 268.958Z" fill="white"/>
<path d="M357.312 388.6C359.592 383.297 367.408 384.119 368.49 389.775L434.982 737.381C435.69 741.081 432.729 744.471 428.94 744.31L145.535 732.146C137.376 731.797 130.542 725.931 129.02 717.974L86.3313 494.81C84.1704 483.514 93.4025 473.23 104.964 474.055L301.576 488.078C309.095 488.615 316.138 484.347 319.099 477.459L357.312 388.6Z" fill="white"/>
<path d="M400.666 380.328C396.589 376.238 389.628 379.879 390.71 385.536L457.202 733.142C457.91 736.841 461.913 738.902 465.376 737.357L724.333 621.709C731.788 618.382 735.977 610.412 734.455 602.455L691.766 379.292C689.605 367.995 677.226 361.835 666.785 366.858L489.197 452.28C482.403 455.547 474.281 454.173 468.986 448.861L400.666 380.328Z" fill="white"/>
<path fill-rule="evenodd" clip-rule="evenodd" d="M327.773 55.795C319.097 52.9424 309.486 54.7761 302.475 60.6219L241.437 111.509C234.278 117.478 230.917 126.718 232.637 135.706L246.989 210.736C248.708 219.725 255.243 227.077 264.101 229.989L339.622 254.821C348.298 257.673 357.908 255.84 364.92 249.994L425.958 199.107C433.117 193.138 436.477 183.898 434.758 174.909L420.406 99.8795C418.686 90.8908 412.152 83.5388 403.294 80.6263L327.773 55.795ZM347.734 179.608C356.87 177.865 362.861 169.025 361.11 159.871L357.49 140.946C355.741 131.802 346.93 125.805 337.804 127.546L319.661 131.008C310.525 132.751 304.534 141.59 306.285 150.745L309.905 169.67C311.654 178.813 320.465 184.811 329.591 183.07L347.734 179.608Z" fill="white"/>
<path fill-rule="evenodd" clip-rule="evenodd" d="M285.942 10.3348C296.645 1.37164 311.322 -1.42891 324.579 2.96279L439.98 41.1918C453.515 45.6757 463.508 56.9711 466.147 70.7716L488.183 185.967C490.823 199.767 485.703 213.946 474.776 223.098L381.613 301.121C370.911 310.084 356.233 312.885 342.976 308.493L227.576 270.264C214.04 265.78 204.048 254.485 201.408 240.684L179.373 125.489C176.733 111.688 181.852 97.5096 192.779 88.3583L285.942 10.3348ZM294.095 35.5071C303.021 28.0799 315.253 25.7461 326.292 29.3638L422.389 60.8547C433.66 64.5483 441.972 73.8808 444.155 85.2942L462.379 180.564C464.562 191.977 460.281 203.713 451.167 211.296L373.461 275.949C364.534 283.376 352.303 285.71 341.263 282.092L245.166 250.601C233.895 246.908 225.584 237.575 223.4 226.162L205.176 130.892C202.993 119.479 207.275 107.743 216.389 100.16L294.095 35.5071Z" fill="white"/>
</svg>
