<svg width="67" height="64" viewBox="0 0 67 64" fill="none" xmlns="http://www.w3.org/2000/svg">
<path fill-rule="evenodd" clip-rule="evenodd" d="M41.8618 13.5302C40.5549 12.1661 38.622 11.5726 36.7738 11.9679L20.6848 15.4091C18.7978 15.8127 17.2864 17.1853 16.727 19.0034L12.057 34.1797C11.4976 35.9978 11.9762 37.9814 13.3105 39.3741L24.6866 51.2485C25.9935 52.6127 27.9263 53.2061 29.7746 52.8108L45.8635 49.3696C47.7506 48.966 49.262 47.5935 49.8214 45.7754L54.4914 30.5991C55.0508 28.7809 54.5722 26.7974 53.2379 25.4046L41.8618 13.5302ZM33.4758 38.2134C35.3134 38.7777 37.266 37.7334 37.8358 35.8817L39.0137 32.0538C39.5828 30.2044 38.5568 28.2493 36.7214 27.6857L33.0726 26.5653C31.235 26.0011 29.2824 27.0453 28.7126 28.897L27.5347 32.7249C26.9656 34.5744 27.9915 36.5295 29.8269 37.0931L33.4758 38.2134Z" fill="black" style="mix-blend-mode:overlay"/>
<path fill-rule="evenodd" clip-rule="evenodd" d="M38.6415 1.12709C41.4665 0.516246 44.4185 1.42266 46.4122 3.51311L63.7677 21.7102C65.8033 23.8446 66.5302 26.8875 65.6712 29.6789L58.5014 52.9795C57.6424 55.7709 55.33 57.8806 52.4457 58.5043L27.8546 63.8216C25.0296 64.4324 22.0776 63.526 20.0838 61.4356L2.72837 43.2385C0.692759 41.1041 -0.0341293 38.0612 0.824831 35.2698L7.9947 11.9692C8.85366 9.17776 11.1661 7.06805 14.0504 6.44438L38.6415 1.12709ZM37.6841 6.54179C40.0356 6.04128 42.4956 6.79662 44.1597 8.53015L58.6454 23.6203C60.3444 25.3902 60.9552 27.9097 60.2448 30.2183L54.3151 49.4885C53.6047 51.7971 51.6827 53.5389 49.2818 54.05L28.812 58.4069C26.4605 58.9074 24.0005 58.1521 22.3364 56.4185L7.85069 41.3284C6.15167 39.5585 5.54093 37.039 6.25131 34.7304L12.181 15.4602C12.8914 13.1516 14.8134 11.4098 17.2143 10.8987L37.6841 6.54179Z" fill="black" style="mix-blend-mode:overlay"/>
</svg>
