<svg width="125" height="121" viewBox="0 0 125 121" fill="black" xmlns="http://www.w3.org/2000/svg">
<path fill-rule="evenodd" clip-rule="evenodd" d="M78.6393 24.6508C76.156 22.0588 72.4834 20.9311 68.9714 21.6822L38.4005 28.2209C34.8149 28.9879 31.9431 31.5958 30.88 35.0505L22.0066 63.8873C20.9435 67.342 21.853 71.111 24.3884 73.7574L46.0044 96.3202C48.4876 98.9122 52.1603 100.04 55.6722 99.2888L86.2431 92.7501C89.8288 91.9832 92.7005 89.3752 93.7636 85.9205L102.637 57.0837C103.7 53.629 102.791 49.86 100.255 47.2136L78.6393 24.6508ZM62.7048 71.5519C66.1965 72.6241 69.9068 70.6399 70.9894 67.1214L73.2276 59.8479C74.309 56.3337 72.3595 52.6188 68.872 51.5479L61.9388 49.4191C58.4471 48.3469 54.7368 50.3312 53.6542 53.8496L51.416 61.1231C50.3347 64.6373 52.2841 68.3522 55.7716 69.4231L62.7048 71.5519Z" fill="black" style="mix-blend-mode:overlay"/>
<path fill-rule="evenodd" clip-rule="evenodd" d="M72.5204 1.08329C77.8882 -0.0773794 83.4973 1.64491 87.2857 5.61703L120.263 40.1938C124.131 44.2493 125.512 50.0313 123.88 55.3353L110.257 99.6092C108.624 104.913 104.231 108.922 98.7501 110.107L52.0239 120.211C46.6561 121.371 41.0469 119.649 37.2585 115.677L4.28101 81.1001C0.413093 77.0446 -0.968082 71.2626 0.66405 65.9586L14.2877 21.6846C15.9198 16.3806 20.3137 12.3718 25.7942 11.1868L72.5204 1.08329ZM70.7012 11.3719C75.1694 10.4209 79.8437 11.8561 83.0057 15.15L110.53 43.8231C113.759 47.1861 114.919 51.9736 113.569 56.3602L102.302 92.9759C100.952 97.3625 97.3002 100.672 92.7382 101.643L53.8431 109.922C49.3749 110.873 44.7006 109.438 41.5386 106.144L14.014 77.4708C10.7857 74.1078 9.62521 69.3203 10.975 64.9337L22.2422 28.318C23.592 23.9314 27.244 20.6216 31.806 19.6506L70.7012 11.3719Z" fill="black" style="mix-blend-mode:overlay"/>
</svg>
