<svg width="749" height="1006" viewBox="0 0 749 1006" fill="none" xmlns="http://www.w3.org/2000/svg">
<g style="mix-blend-mode:overlay" opacity="0.25">
<path fill-rule="evenodd" clip-rule="evenodd" d="M720.937 242.147C681.974 225.014 636.549 229.157 601.363 253.053L295.073 461.061C259.148 485.458 239.367 526.721 243.271 569.118L275.854 923.015C279.757 965.412 306.744 1002.41 346.525 1019.9L685.698 1169.04C724.661 1186.17 770.086 1182.03 805.272 1158.13L1111.56 950.125C1147.49 925.728 1167.27 884.465 1163.36 842.068L1130.78 488.171C1126.88 445.774 1099.89 408.776 1060.11 391.284L720.937 242.147ZM757.431 824.457C800.617 820.518 832.421 782.3 828.445 739.12L820.227 649.857C816.256 606.729 778.091 574.974 734.956 578.908L649.204 586.729C606.018 590.668 574.215 628.886 578.19 672.066L586.409 761.329C590.379 804.457 628.545 836.212 671.679 832.278L757.431 824.457Z" fill="#161C18"/>
<path fill-rule="evenodd" clip-rule="evenodd" d="M547.448 12.7345C601.172 -23.9257 670.547 -30.2533 730.07 -3.92193L1248.21 225.289C1308.98 252.173 1350.23 308.993 1356.22 374.087L1406.25 917.433C1412.24 982.527 1382.06 1045.86 1327.21 1083.29L859.552 1402.41C805.828 1439.07 736.453 1445.4 676.93 1419.07L158.788 1189.86C98.0156 1162.98 56.7704 1106.16 50.7772 1041.06L0.751337 497.715C-5.24184 432.622 24.9405 369.287 79.7918 331.857L547.448 12.7345ZM573.865 132.976C618.653 102.624 676.466 97.351 726.051 119.095L1157.68 308.375C1208.3 330.576 1242.64 377.547 1247.59 431.381L1288.97 880.743C1293.92 934.577 1268.74 986.978 1223.01 1017.97L833.135 1282.17C788.347 1312.52 730.534 1317.8 680.95 1296.05L249.325 1106.77C198.699 1084.57 164.363 1037.6 159.407 983.767L118.034 534.405C113.078 480.571 138.264 428.171 183.992 397.182L573.865 132.976Z" fill="#161C18"/>
</g>
</svg>
