<svg width="1261" height="680" viewBox="0 0 1261 680" fill="none" xmlns="http://www.w3.org/2000/svg">
<g style="mix-blend-mode:overlay" opacity="0.12">
<path d="M472.282 308.252L148.069 447.431C131.966 454.343 118.939 466.836 111.426 482.569L4.19759 707.133C-6.67014 729.892 8.89568 756.315 34.1884 758.043L724.452 805.175C733.76 805.81 742.419 800.359 745.813 791.724L840.849 549.955C849.928 526.854 865.541 526.808 886.038 526.746C895.198 526.719 905.333 526.689 916.296 524.597C927.259 522.505 936.691 518.802 945.216 515.455C964.292 507.965 978.824 502.261 995.79 520.392L1173.37 710.145C1179.71 716.922 1189.77 718.802 1198.19 714.784L1822.44 416.839C1845.32 405.921 1850.04 375.627 1831.54 358.472L1648.97 189.202C1636.18 177.342 1619.46 170.526 1601.94 170.028L1242.71 159.833C1235.06 188.046 1218.84 213.8 1195.6 233.26L1147.39 273.641L1290.23 279.133L974.11 421.292C962.842 426.36 953.7 443.029 944.505 459.795C934.526 477.99 924.484 496.299 911.595 500.02C898.24 501.307 882.147 487.984 866.156 474.745C857.725 467.764 849.322 460.808 841.363 456.027C835.946 454.89 830.565 453.442 825.245 451.68L818.983 449.605L478.098 434.089L604.192 378.451L542.231 357.925C513.959 348.559 489.743 331.056 472.282 308.252Z" fill="url(#paint0_linear_1_228)"/>
<path d="M875.936 601.668C881.529 588.663 900.695 590.678 903.349 604.551L1066.42 1457.04C1068.15 1466.11 1060.89 1474.43 1051.6 1474.03L356.563 1444.2C336.554 1443.34 319.793 1428.96 316.06 1409.44L211.369 862.144C206.07 834.441 228.711 809.221 257.066 811.243L739.246 845.635C757.687 846.951 774.958 836.484 782.222 819.592L875.936 601.668Z" fill="url(#paint1_linear_1_228)"/>
<path d="M982.261 581.381C972.261 571.35 955.189 580.281 957.843 594.154L1120.91 1446.64C1122.65 1455.71 1132.47 1460.77 1140.96 1456.98L1776.04 1173.36C1794.32 1165.2 1804.59 1145.65 1800.86 1126.14L1696.17 578.84C1690.87 551.137 1660.51 536.03 1634.9 548.348L1199.38 757.841C1182.72 765.854 1162.8 762.483 1149.81 749.455L982.261 581.381Z" fill="url(#paint2_linear_1_228)"/>
<path fill-rule="evenodd" clip-rule="evenodd" d="M803.493 -214.52C782.215 -221.516 758.646 -217.019 741.45 -202.682L591.758 -77.8835C574.201 -63.2459 565.96 -40.5854 570.176 -18.5411L605.374 165.466C609.591 187.51 625.616 205.541 647.34 212.684L832.553 273.581C853.83 280.577 877.399 276.08 894.595 261.744L1044.29 136.945C1061.84 122.308 1070.09 99.647 1065.87 77.6026L1030.67 -106.405C1026.45 -128.449 1010.43 -146.479 988.706 -153.622L803.493 -214.52ZM852.446 89.1257C874.853 84.8503 889.544 63.1723 885.25 40.7212L876.372 -5.69081C872.083 -28.1151 850.474 -42.8237 828.093 -38.5535L783.6 -30.064C761.192 -25.7886 746.501 -4.11055 750.795 18.3405L759.674 64.7525C763.963 87.1768 785.572 101.885 807.952 97.6151L852.446 89.1257Z" fill="url(#paint3_linear_1_228)"/>
<path fill-rule="evenodd" clip-rule="evenodd" d="M700.906 -326.009C727.153 -347.99 763.149 -354.859 795.661 -344.088L1078.68 -250.333C1111.87 -239.337 1136.38 -211.635 1142.85 -177.79L1196.89 104.721C1203.36 138.566 1190.81 173.338 1164.01 195.782L935.534 387.131C909.287 409.112 873.29 415.981 840.778 405.21L557.764 311.455C524.57 300.459 500.064 272.757 493.59 238.912L439.549 -43.5986C433.075 -77.4439 445.63 -112.217 472.428 -134.66L700.906 -326.009ZM720.899 -264.275C742.791 -282.49 772.788 -288.213 799.862 -279.341L1035.54 -202.111C1063.18 -193.053 1083.56 -170.165 1088.92 -142.174L1133.61 91.4698C1138.96 119.461 1128.46 148.241 1106.11 166.838L915.541 325.397C893.648 343.612 863.651 349.335 836.578 340.463L600.904 263.233C573.262 254.175 552.879 231.287 547.524 203.296L502.831 -30.3479C497.477 -58.3388 507.977 -87.1191 530.329 -105.716L720.899 -264.275Z" fill="url(#paint4_linear_1_228)"/>
</g>
<defs>
<linearGradient id="paint0_linear_1_228" x1="832.938" y1="-356.246" x2="1012.14" y2="1478.03" gradientUnits="userSpaceOnUse">
<stop offset="0.195382" stop-color="white"/>
<stop offset="0.574285" stop-color="white" stop-opacity="0.28"/>
</linearGradient>
<linearGradient id="paint1_linear_1_228" x1="832.938" y1="-356.246" x2="1012.14" y2="1478.03" gradientUnits="userSpaceOnUse">
<stop offset="0.195382" stop-color="white"/>
<stop offset="0.574285" stop-color="white" stop-opacity="0.28"/>
</linearGradient>
<linearGradient id="paint2_linear_1_228" x1="832.938" y1="-356.246" x2="1012.14" y2="1478.03" gradientUnits="userSpaceOnUse">
<stop offset="0.195382" stop-color="white"/>
<stop offset="0.574285" stop-color="white" stop-opacity="0.28"/>
</linearGradient>
<linearGradient id="paint3_linear_1_228" x1="832.938" y1="-356.246" x2="1012.14" y2="1478.03" gradientUnits="userSpaceOnUse">
<stop offset="0.195382" stop-color="white"/>
<stop offset="0.574285" stop-color="white" stop-opacity="0.28"/>
</linearGradient>
<linearGradient id="paint4_linear_1_228" x1="832.938" y1="-356.246" x2="1012.14" y2="1478.03" gradientUnits="userSpaceOnUse">
<stop offset="0.195382" stop-color="white"/>
<stop offset="0.574285" stop-color="white" stop-opacity="0.28"/>
</linearGradient>
</defs>
</svg>
