<svg width="250" height="50" viewBox="0 0 250 50" fill="none" xmlns="http://www.w3.org/2000/svg">
<path fill-rule="evenodd" clip-rule="evenodd" d="M23.6319 4.16309C23.0878 3.92284 22.4535 3.98094 21.9622 4.31602L17.6855 7.23287C17.1838 7.57499 16.9076 8.15361 16.9621 8.74814L17.4171 13.7107C17.4716 14.3053 17.8484 14.8241 18.4039 15.0694L23.1398 17.1607C23.6839 17.4009 24.3181 17.3428 24.8094 17.0078L29.0862 14.0909C29.5878 13.7488 29.864 13.1702 29.8095 12.5756L29.3546 7.61303C29.3001 7.0185 28.9233 6.49969 28.3678 6.2544L23.6319 4.16309ZM25.2335 12.2287L24.9179 8.78555L21.5381 9.09512L21.8538 12.5382L25.2335 12.2287Z" fill="#161C18"/>
<path fill-rule="evenodd" clip-rule="evenodd" d="M21.2094 0.94609C21.9596 0.432012 22.9283 0.343281 23.7594 0.71252L30.9943 3.92669C31.8428 4.30368 32.4188 5.10046 32.5024 6.01325L33.201 13.6325C33.2846 14.5453 32.8632 15.4334 32.0973 15.9583L25.5674 20.4333C24.8172 20.9473 23.8485 21.0361 23.0174 20.6668L15.7825 17.4527C14.9339 17.0757 14.358 16.2789 14.2743 15.3661L13.5758 7.74687C13.4921 6.83407 13.9136 5.94594 14.6795 5.42107L21.2094 0.94609ZM21.5783 2.6322C22.2037 2.20659 23.0109 2.13265 23.7033 2.43756L29.7301 5.09179C30.437 5.4031 30.9164 6.06177 30.9856 6.81668L31.5633 13.118C31.6325 13.8729 31.2809 14.6077 30.6423 15.0422L25.1985 18.7471C24.5731 19.1728 23.7659 19.2467 23.0735 18.9418L17.0467 16.2876C16.3398 15.9762 15.8603 15.3176 15.7911 14.5627L15.2134 8.26136C15.1442 7.50646 15.4959 6.77166 16.1344 6.33711L21.5783 2.6322Z" fill="#161C18"/>
<path d="M13.5324 17.1468L4.60792 19.9929C4.16466 20.1343 3.78826 20.4313 3.54918 20.8284L0.13673 26.4964C-0.209124 27.0708 0.133907 27.8106 0.797649 27.9218L18.9119 30.955C19.1561 30.9959 19.3989 30.874 19.5109 30.6541L22.6456 24.4991C22.9451 23.911 23.3577 23.9502 23.8994 24.0016C24.1414 24.0245 24.4093 24.0499 24.7043 24.0229C24.9993 23.9959 25.2581 23.9222 25.4919 23.8557C26.0152 23.7067 26.4138 23.5933 26.8153 24.1172L31.017 29.6002C31.167 29.796 31.428 29.8718 31.6608 29.7872L48.9217 23.5138C49.5541 23.2839 49.7571 22.4941 49.3125 21.9921L44.9262 17.0384C44.619 16.6914 44.1948 16.4677 43.7333 16.4092L34.2691 15.2101C33.9942 15.9372 33.4993 16.5771 32.8352 17.0322L31.4572 17.9766L35.2167 18.4915L26.4983 21.4375C26.1875 21.5425 25.903 21.9602 25.6168 22.3803C25.3062 22.8362 24.9937 23.2949 24.6435 23.3601C24.2874 23.3596 23.8966 22.9653 23.5083 22.5734C23.3036 22.3668 23.0996 22.1609 22.9016 22.0137C22.7615 21.9696 22.6231 21.9174 22.4871 21.8569L22.327 21.7858L13.3613 20.4933L16.8361 19.3465L15.2522 18.6428C14.5295 18.3217 13.9349 17.7956 13.5324 17.1468Z" fill="#161C18"/>
<path d="M23.4391 25.959C23.6204 25.6291 24.1216 25.7321 24.1559 26.1062L26.2637 49.0975C26.2861 49.3422 26.0729 49.5435 25.8284 49.509L7.54339 46.9215C7.01699 46.8471 6.6113 46.4229 6.56305 45.8966L5.20984 31.1362C5.14134 30.389 5.80458 29.7799 6.54847 29.9068L19.1983 32.0644C19.6821 32.147 20.1653 31.9145 20.4008 31.4861L23.4391 25.959Z" fill="url(#paint0_linear_1_329)"/>
<path d="M26.3004 25.6969C26.0622 25.4055 25.5881 25.5977 25.6224 25.9719L27.7302 48.9632C27.7526 49.2079 27.9989 49.3671 28.2331 49.2888L45.7431 43.4226C46.2472 43.2538 46.569 42.7629 46.5207 42.2366L45.1675 27.4762C45.099 26.729 44.3359 26.2505 43.6277 26.5104L31.5809 30.9302C31.1201 31.0993 30.6026 30.9585 30.2931 30.58L26.3004 25.6969Z" fill="url(#paint1_linear_1_329)"/>
<path d="M62.8157 36.9062C62.5934 36.9062 62.3933 36.8284 62.2155 36.6729C62.0377 36.495 61.9488 36.2839 61.9488 36.0393V14.4336C61.9488 14.189 62.0377 13.989 62.2155 13.8334C62.3933 13.6556 62.5934 13.5667 62.8157 13.5667H73.4518C75.4746 13.5667 77.1306 13.8334 78.4198 14.3669C79.7091 14.9004 80.6649 15.6672 81.2873 16.6675C81.9097 17.6678 82.2209 18.9014 82.2209 20.3685C82.2209 21.1242 82.0653 21.8022 81.7541 22.4024C81.4651 22.9803 81.1095 23.4693 80.6871 23.8694C80.2648 24.2473 79.8647 24.5252 79.4868 24.703C80.3537 25.0809 81.1095 25.7255 81.7541 26.6368C82.3987 27.526 82.721 28.5485 82.721 29.7043C82.721 31.2603 82.3653 32.5718 81.654 33.6387C80.965 34.7057 79.9536 35.517 78.6199 36.0727C77.3084 36.6284 75.6969 36.9062 73.7853 36.9062H62.8157ZM69.1173 31.8716H73.0184C73.7742 31.8716 74.3299 31.6493 74.6855 31.2047C75.0412 30.7379 75.219 30.2267 75.219 29.671C75.219 29.093 75.03 28.5929 74.6522 28.1706C74.2743 27.726 73.7297 27.5037 73.0184 27.5037H69.1173V31.8716ZM69.1173 22.6024H72.685C73.3963 22.6024 73.9186 22.4024 74.2521 22.0023C74.5855 21.6021 74.7522 21.1354 74.7522 20.6019C74.7522 20.0684 74.5855 19.6016 74.2521 19.2015C73.9186 18.8014 73.3963 18.6013 72.685 18.6013H69.1173V22.6024Z" fill="#161C18"/>
<path d="M86.447 36.9062C86.2025 36.9062 85.9913 36.8284 85.8135 36.6729C85.6579 36.495 85.5801 36.2839 85.5801 36.0393V14.1001C85.5801 13.8556 85.6579 13.6556 85.8135 13.5C85.9913 13.3222 86.2025 13.2332 86.447 13.2332H91.415C91.6373 13.2332 91.8373 13.3222 92.0151 13.5C92.193 13.6556 92.2819 13.8556 92.2819 14.1001V36.0393C92.2819 36.2839 92.193 36.495 92.0151 36.6729C91.8373 36.8284 91.6373 36.9062 91.415 36.9062H86.447Z" fill="#161C18"/>
<path d="M104.441 37.2397C102.485 37.2397 100.829 36.9507 99.4734 36.3728C98.1397 35.7948 97.1172 34.9502 96.4059 33.8388C95.6946 32.7051 95.2945 31.3492 95.2056 29.771C95.1834 29.3042 95.1722 28.793 95.1722 28.2373C95.1722 27.6816 95.1834 27.1703 95.2056 26.7035C95.2945 25.1031 95.7168 23.7472 96.4726 22.6358C97.2284 21.5243 98.2731 20.6797 99.6068 20.1017C100.963 19.5238 102.574 19.2348 104.441 19.2348C106.309 19.2348 107.909 19.5238 109.243 20.1017C110.599 20.6797 111.654 21.5243 112.41 22.6358C113.166 23.7472 113.588 25.1031 113.677 26.7035C113.722 27.1703 113.744 27.6816 113.744 28.2373C113.744 28.793 113.722 29.3042 113.677 29.771C113.588 31.3492 113.188 32.7051 112.477 33.8388C111.766 34.9502 110.732 35.7948 109.376 36.3728C108.042 36.9507 106.397 37.2397 104.441 37.2397ZM104.441 32.5384C105.264 32.5384 105.831 32.2939 106.142 31.8049C106.453 31.3159 106.631 30.5823 106.675 29.6043C106.698 29.2709 106.709 28.8152 106.709 28.2373C106.709 27.6593 106.698 27.2036 106.675 26.8702C106.631 25.9144 106.453 25.192 106.142 24.703C105.831 24.1917 105.264 23.9361 104.441 23.9361C103.641 23.9361 103.085 24.1917 102.774 24.703C102.463 25.192 102.274 25.9144 102.207 26.8702C102.185 27.2036 102.174 27.6593 102.174 28.2373C102.174 28.8152 102.185 29.2709 102.207 29.6043C102.274 30.5823 102.463 31.3159 102.774 31.8049C103.085 32.2939 103.641 32.5384 104.441 32.5384Z" fill="#161C18"/>
<path d="M115.261 36.9062C115.038 36.9062 114.849 36.8284 114.694 36.6729C114.561 36.5173 114.494 36.3394 114.494 36.1394C114.494 36.0727 114.505 35.9949 114.527 35.906C114.549 35.8171 114.594 35.7282 114.661 35.6392L120.129 27.9705L115.194 20.8353C115.15 20.7686 115.105 20.6908 115.061 20.6019C115.038 20.513 115.027 20.4241 115.027 20.3351C115.027 20.1351 115.105 19.9573 115.261 19.8017C115.416 19.6461 115.594 19.5683 115.794 19.5683H120.896C121.207 19.5683 121.44 19.6461 121.596 19.8017C121.751 19.935 121.862 20.0573 121.929 20.1684L124.43 23.8027L126.93 20.1684C127.019 20.0573 127.131 19.935 127.264 19.8017C127.42 19.6461 127.653 19.5683 127.964 19.5683H132.832C133.032 19.5683 133.21 19.6461 133.366 19.8017C133.521 19.9573 133.599 20.124 133.599 20.3018C133.599 20.4129 133.588 20.513 133.566 20.6019C133.543 20.6908 133.499 20.7686 133.432 20.8353L128.398 27.9705L133.966 35.6392C134.032 35.7282 134.077 35.8171 134.099 35.906C134.121 35.9949 134.132 36.0727 134.132 36.1394C134.132 36.3394 134.055 36.5173 133.899 36.6729C133.743 36.8284 133.566 36.9062 133.366 36.9062H128.031C127.742 36.9062 127.531 36.8396 127.397 36.7062C127.264 36.5728 127.153 36.4506 127.064 36.3394L124.296 32.4717L121.429 36.3394C121.362 36.4506 121.251 36.5728 121.096 36.7062C120.962 36.8396 120.751 36.9062 120.462 36.9062H115.261Z" fill="#161C18"/>
<path d="M137.447 36.9062C137.202 36.9062 137.002 36.8284 136.847 36.6729C136.691 36.5173 136.613 36.3172 136.613 36.0727V20.4018C136.613 20.1795 136.691 19.9906 136.847 19.835C137.002 19.6572 137.202 19.5683 137.447 19.5683H141.281C141.526 19.5683 141.726 19.6572 141.881 19.835C142.037 19.9906 142.115 20.1795 142.115 20.4018V21.7355C142.715 21.0464 143.426 20.513 144.249 20.1351C145.093 19.7572 146.038 19.5683 147.083 19.5683H148.55C148.772 19.5683 148.961 19.6461 149.116 19.8017C149.294 19.9573 149.383 20.1573 149.383 20.4018V23.8361C149.383 24.0584 149.294 24.2584 149.116 24.4362C148.961 24.5918 148.772 24.6696 148.55 24.6696H145.315C144.404 24.6696 143.693 24.9253 143.182 25.4365C142.693 25.9255 142.448 26.6257 142.448 27.5371V36.0727C142.448 36.3172 142.359 36.5173 142.181 36.6729C142.026 36.8284 141.826 36.9062 141.581 36.9062H137.447Z" fill="url(#paint2_linear_1_329)"/>
<path d="M159.626 37.2397C157.003 37.2397 154.913 36.5284 153.357 35.1058C151.801 33.6832 150.99 31.5715 150.923 28.7707C150.923 28.6151 150.923 28.4151 150.923 28.1706C150.923 27.9261 150.923 27.7371 150.923 27.6038C150.99 25.8477 151.379 24.3473 152.09 23.1026C152.824 21.8355 153.824 20.8797 155.091 20.2351C156.38 19.5683 157.881 19.2348 159.592 19.2348C161.549 19.2348 163.16 19.6238 164.427 20.4018C165.716 21.1798 166.683 22.2357 167.328 23.5693C167.972 24.903 168.295 26.4257 168.295 28.1372V28.9374C168.295 29.182 168.206 29.382 168.028 29.5376C167.872 29.6932 167.684 29.771 167.461 29.771H156.792C156.792 29.7932 156.792 29.8266 156.792 29.871C156.792 29.9155 156.792 29.9599 156.792 30.0044C156.814 30.649 156.925 31.2381 157.125 31.7715C157.325 32.305 157.636 32.7274 158.059 33.0385C158.481 33.3497 158.992 33.5053 159.592 33.5053C160.037 33.5053 160.404 33.4387 160.693 33.3053C161.004 33.1497 161.26 32.983 161.46 32.8051C161.66 32.6051 161.815 32.4384 161.926 32.305C162.126 32.0827 162.282 31.9494 162.393 31.9049C162.527 31.8382 162.727 31.8049 162.993 31.8049H167.128C167.35 31.8049 167.528 31.8716 167.661 32.0049C167.817 32.1161 167.884 32.2828 167.861 32.5051C167.839 32.8829 167.65 33.3386 167.295 33.8721C166.939 34.4056 166.417 34.9391 165.727 35.4725C165.061 35.9838 164.216 36.4061 163.193 36.7395C162.171 37.073 160.982 37.2397 159.626 37.2397ZM156.792 26.4701H162.427V26.4034C162.427 25.6921 162.315 25.0697 162.093 24.5363C161.893 24.0028 161.571 23.5916 161.126 23.3026C160.704 23.0136 160.193 22.8692 159.592 22.8692C158.992 22.8692 158.481 23.0136 158.059 23.3026C157.659 23.5916 157.347 24.0028 157.125 24.5363C156.903 25.0697 156.792 25.6921 156.792 26.4034V26.4701Z" fill="url(#paint3_linear_1_329)"/>
<path d="M175.734 36.9062C175.401 36.9062 175.156 36.8284 175.001 36.6729C174.845 36.5173 174.723 36.3172 174.634 36.0727L169.833 20.6352C169.788 20.5241 169.766 20.4129 169.766 20.3018C169.766 20.1017 169.844 19.935 169.999 19.8017C170.155 19.6461 170.333 19.5683 170.533 19.5683H173.967C174.256 19.5683 174.478 19.6461 174.634 19.8017C174.812 19.9573 174.923 20.1129 174.967 20.2685L177.768 29.8043L180.769 20.3018C180.813 20.1462 180.913 19.9906 181.069 19.835C181.247 19.6572 181.491 19.5683 181.803 19.5683H184.003C184.314 19.5683 184.548 19.6572 184.703 19.835C184.881 19.9906 184.992 20.1462 185.037 20.3018L188.038 29.8043L190.838 20.2685C190.883 20.1129 190.983 19.9573 191.138 19.8017C191.316 19.6461 191.55 19.5683 191.839 19.5683H195.273C195.473 19.5683 195.64 19.6461 195.773 19.8017C195.929 19.935 196.006 20.1017 196.006 20.3018C196.006 20.4129 195.995 20.5241 195.973 20.6352L191.172 36.0727C191.105 36.3172 190.983 36.5173 190.805 36.6729C190.649 36.8284 190.405 36.9062 190.071 36.9062H187.071C186.759 36.9062 186.515 36.8284 186.337 36.6729C186.159 36.5173 186.037 36.3172 185.97 36.0727L182.903 26.9369L179.835 36.0727C179.769 36.3172 179.646 36.5173 179.469 36.6729C179.291 36.8284 179.046 36.9062 178.735 36.9062H175.734Z" fill="url(#paint4_linear_1_329)"/>
<path d="M203.452 37.2397C202.252 37.2397 201.174 37.0174 200.218 36.5728C199.284 36.106 198.54 35.4836 197.984 34.7057C197.428 33.9277 197.15 33.0497 197.15 32.0716C197.15 30.4934 197.795 29.2486 199.084 28.3373C200.374 27.4037 202.085 26.7702 204.219 26.4368L208.387 25.8033V25.3365C208.387 24.5363 208.22 23.925 207.887 23.5027C207.553 23.0803 206.942 22.8692 206.053 22.8692C205.43 22.8692 204.919 22.9914 204.519 23.2359C204.141 23.4804 203.841 23.8139 203.619 24.2362C203.419 24.5252 203.141 24.6696 202.785 24.6696H199.051C198.806 24.6696 198.617 24.603 198.484 24.4696C198.351 24.314 198.295 24.1362 198.317 23.9361C198.317 23.536 198.462 23.0803 198.751 22.5691C199.062 22.0356 199.529 21.5132 200.151 21.002C200.774 20.4907 201.574 20.0684 202.552 19.735C203.53 19.4016 204.708 19.2348 206.086 19.2348C207.531 19.2348 208.765 19.4016 209.787 19.735C210.81 20.0684 211.632 20.5352 212.254 21.1354C212.899 21.7355 213.377 22.4468 213.688 23.2693C213.999 24.0695 214.155 24.9586 214.155 25.9366V36.0727C214.155 36.3172 214.066 36.5173 213.888 36.6729C213.733 36.8284 213.544 36.9062 213.321 36.9062H209.454C209.209 36.9062 209.009 36.8284 208.854 36.6729C208.698 36.5173 208.62 36.3172 208.62 36.0727V34.9057C208.331 35.328 207.942 35.717 207.453 36.0727C206.964 36.4283 206.386 36.7062 205.719 36.9062C205.075 37.1285 204.319 37.2397 203.452 37.2397ZM205.019 33.4387C205.664 33.4387 206.242 33.3053 206.753 33.0385C207.286 32.7496 207.698 32.3161 207.987 31.7382C208.298 31.138 208.453 30.3934 208.453 29.5043V29.0375L205.619 29.5376C204.575 29.7154 203.808 29.9933 203.319 30.3712C202.852 30.7268 202.619 31.1491 202.619 31.6382C202.619 32.016 202.73 32.3384 202.952 32.6051C203.174 32.8718 203.463 33.083 203.819 33.2386C204.175 33.372 204.575 33.4387 205.019 33.4387Z" fill="url(#paint5_linear_1_329)"/>
<path d="M218.751 36.9062C218.507 36.9062 218.306 36.8284 218.151 36.6729C217.995 36.5173 217.917 36.3172 217.917 36.0727V20.4018C217.917 20.1795 217.995 19.9906 218.151 19.835C218.306 19.6572 218.507 19.5683 218.751 19.5683H222.585C222.83 19.5683 223.03 19.6572 223.186 19.835C223.341 19.9906 223.419 20.1795 223.419 20.4018V21.7355C224.019 21.0464 224.73 20.513 225.553 20.1351C226.397 19.7572 227.342 19.5683 228.387 19.5683H229.854C230.076 19.5683 230.265 19.6461 230.421 19.8017C230.599 19.9573 230.688 20.1573 230.688 20.4018V23.8361C230.688 24.0584 230.599 24.2584 230.421 24.4362C230.265 24.5918 230.076 24.6696 229.854 24.6696H226.62C225.708 24.6696 224.997 24.9253 224.486 25.4365C223.997 25.9255 223.752 26.6257 223.752 27.5371V36.0727C223.752 36.3172 223.663 36.5173 223.486 36.6729C223.33 36.8284 223.13 36.9062 222.885 36.9062H218.751Z" fill="url(#paint6_linear_1_329)"/>
<path d="M239.364 37.2397C238.297 37.2397 237.33 37.073 236.463 36.7395C235.618 36.3839 234.885 35.8726 234.262 35.2058C233.662 34.5167 233.195 33.6943 232.862 32.7385C232.529 31.7604 232.34 30.649 232.295 29.4042C232.273 28.9597 232.262 28.5707 232.262 28.2373C232.262 27.8816 232.273 27.4926 232.295 27.0703C232.34 25.87 232.529 24.7919 232.862 23.8361C233.195 22.8803 233.662 22.0578 234.262 21.3688C234.863 20.6797 235.596 20.1573 236.463 19.8017C237.33 19.4238 238.297 19.2348 239.364 19.2348C240.475 19.2348 241.431 19.4238 242.231 19.8017C243.031 20.1573 243.709 20.6241 244.265 21.202V14.0668C244.265 13.8223 244.343 13.6222 244.499 13.4666C244.654 13.311 244.854 13.2332 245.099 13.2332H249.166C249.389 13.2332 249.578 13.311 249.733 13.4666C249.911 13.6222 250 13.8223 250 14.0668V36.0727C250 36.3172 249.911 36.5173 249.733 36.6729C249.578 36.8284 249.389 36.9062 249.166 36.9062H245.399C245.154 36.9062 244.954 36.8284 244.799 36.6729C244.643 36.5173 244.565 36.3172 244.565 36.0727V35.0057C244.032 35.6504 243.343 36.1838 242.498 36.6062C241.653 37.0285 240.609 37.2397 239.364 37.2397ZM241.164 32.7718C241.92 32.7718 242.509 32.6162 242.931 32.305C243.376 31.9716 243.698 31.5493 243.898 31.038C244.121 30.5268 244.243 29.9711 244.265 29.3709C244.287 28.9263 244.298 28.504 244.298 28.1039C244.298 27.7038 244.287 27.2926 244.265 26.8702C244.243 26.3145 244.121 25.8033 243.898 25.3365C243.676 24.8475 243.343 24.4585 242.898 24.1695C242.454 23.8583 241.876 23.7027 241.164 23.7027C240.431 23.7027 239.842 23.8583 239.397 24.1695C238.975 24.4807 238.675 24.903 238.497 25.4365C238.319 25.97 238.208 26.559 238.163 27.2036C238.097 27.8927 238.097 28.5818 238.163 29.2709C238.208 29.9155 238.319 30.5045 238.497 31.038C238.675 31.5715 238.975 31.9938 239.397 32.305C239.842 32.6162 240.431 32.7718 241.164 32.7718Z" fill="url(#paint7_linear_1_329)"/>
<defs>
<linearGradient id="paint0_linear_1_329" x1="125.442" y1="23.5117" x2="125.932" y2="49.7348" gradientUnits="userSpaceOnUse">
<stop stop-color="#29B851"/>
<stop offset="1" stop-color="#25AD4B"/>
</linearGradient>
<linearGradient id="paint1_linear_1_329" x1="125.442" y1="23.5117" x2="125.932" y2="49.7348" gradientUnits="userSpaceOnUse">
<stop stop-color="#29B851"/>
<stop offset="1" stop-color="#25AD4B"/>
</linearGradient>
<linearGradient id="paint2_linear_1_329" x1="193.389" y1="18.3465" x2="193.389" y2="36.9062" gradientUnits="userSpaceOnUse">
<stop stop-color="#29B851"/>
<stop offset="1" stop-color="#25A44C"/>
</linearGradient>
<linearGradient id="paint3_linear_1_329" x1="193.389" y1="18.3465" x2="193.389" y2="36.9062" gradientUnits="userSpaceOnUse">
<stop stop-color="#29B851"/>
<stop offset="1" stop-color="#25A44C"/>
</linearGradient>
<linearGradient id="paint4_linear_1_329" x1="193.389" y1="18.3465" x2="193.389" y2="36.9062" gradientUnits="userSpaceOnUse">
<stop stop-color="#29B851"/>
<stop offset="1" stop-color="#25A44C"/>
</linearGradient>
<linearGradient id="paint5_linear_1_329" x1="193.389" y1="18.3465" x2="193.389" y2="36.9062" gradientUnits="userSpaceOnUse">
<stop stop-color="#29B851"/>
<stop offset="1" stop-color="#25A44C"/>
</linearGradient>
<linearGradient id="paint6_linear_1_329" x1="193.389" y1="18.3465" x2="193.389" y2="36.9062" gradientUnits="userSpaceOnUse">
<stop stop-color="#29B851"/>
<stop offset="1" stop-color="#25A44C"/>
</linearGradient>
<linearGradient id="paint7_linear_1_329" x1="193.389" y1="18.3465" x2="193.389" y2="36.9062" gradientUnits="userSpaceOnUse">
<stop stop-color="#29B851"/>
<stop offset="1" stop-color="#25A44C"/>
</linearGradient>
</defs>
</svg>
