<svg width="87" height="72" viewBox="0 0 87 72" fill="none" xmlns="http://www.w3.org/2000/svg">
<g filter="url(#filter0_d_1_966)">
<path fill-rule="evenodd" clip-rule="evenodd" d="M46.1446 16.6475C44.7222 15.8282 42.9798 15.8274 41.558 16.6452L29.1811 23.7641C27.7295 24.5991 26.833 26.16 26.8336 27.8517L26.8383 41.9727C26.8389 43.6644 27.7364 45.2262 29.1886 46.0627L41.5702 53.1944C42.9926 54.0137 44.735 54.0145 46.1568 53.1967L58.5337 46.0778C59.9853 45.2428 60.8818 43.6819 60.8812 41.9902L60.8764 27.8692C60.8759 26.1775 59.9784 24.6157 58.5262 23.7792L46.1446 16.6475ZM45.5011 39.8204C47.1576 39.8213 48.5008 38.4245 48.5002 36.7016L48.499 33.1398C48.4984 31.419 47.1574 30.024 45.5029 30.0231L42.2137 30.0215C40.5571 30.0206 39.214 31.4174 39.2146 33.1403L39.2158 36.7021C39.2164 38.4229 40.5574 39.8179 42.2119 39.8188L45.5011 39.8204Z" fill="#25AD4B"/>
<path fill-rule="evenodd" clip-rule="evenodd" d="M40.3455 6.94075C42.517 5.68514 45.1781 5.6865 47.3505 6.94435L66.2606 17.8937C68.4785 19.178 69.8493 21.5758 69.8501 24.1732L69.8574 45.8535C69.8583 48.4509 68.4892 50.8473 66.2721 52.1293L47.3693 63.0593C45.1978 64.3149 42.5367 64.3135 40.3644 63.0557L21.4543 52.1063C19.2363 50.822 17.8656 48.4242 17.8647 45.8268L17.8574 24.1465C17.8565 21.5492 19.2256 19.1527 21.4427 17.8707L40.3455 6.94075ZM40.9309 11.7942C42.7405 10.7558 44.9581 10.7569 46.7684 11.7972L62.5268 20.8527C64.3751 21.9148 65.5173 23.8979 65.518 26.046L65.5241 43.9762C65.5248 46.1243 64.3839 48.1063 62.5363 49.1665L46.784 58.2058C44.9744 59.2442 42.7568 59.2431 40.9465 58.2028L25.1881 49.1473C23.3398 48.0852 22.1975 46.1021 22.1968 43.954L22.1908 26.0238C22.1901 23.8757 23.331 21.8938 25.1786 20.8335L40.9309 11.7942Z" fill="#25AD4B"/>
<path d="M48.499 33.1398L48.5002 36.7016C48.5008 38.4245 47.1576 39.8213 45.5011 39.8204L42.2119 39.8188C40.5574 39.8179 39.2164 38.4229 39.2158 36.7021L39.2146 33.1403C39.214 31.4174 40.5571 30.0206 42.2137 30.0215L45.5029 30.0231C47.1574 30.024 48.4984 31.419 48.499 33.1398Z" fill="#25AD4B"/>
<path fill-rule="evenodd" clip-rule="evenodd" d="M46.7684 11.7972C44.9581 10.7569 42.7405 10.7558 40.9309 11.7942L25.1786 20.8335C23.331 21.8938 22.1901 23.8757 22.1908 26.0238L22.1968 43.954C22.1975 46.1021 23.3398 48.0852 25.1881 49.1473L40.9465 58.2028C42.7568 59.2431 44.9744 59.2442 46.784 58.2058L62.5363 49.1665C64.3839 48.1063 65.5248 46.1243 65.5241 43.9762L65.518 26.046C65.5173 23.8979 64.3751 21.9148 62.5268 20.8527L46.7684 11.7972ZM29.1811 23.7641L41.558 16.6452C42.9798 15.8274 44.7222 15.8282 46.1446 16.6475L58.5262 23.7792C59.9784 24.6157 60.8759 26.1775 60.8764 27.8692L60.8812 41.9902C60.8818 43.6819 59.9853 45.2428 58.5337 46.0778L46.1568 53.1967C44.735 54.0145 42.9926 54.0137 41.5702 53.1944L29.1886 46.0627C27.7364 45.2262 26.8389 43.6644 26.8383 41.9727L26.8336 27.8517C26.833 26.16 27.7295 24.5991 29.1811 23.7641Z" fill="#25AD4B"/>
</g>
<path fill-rule="evenodd" clip-rule="evenodd" d="M34.0085 28C34.0085 27.4477 34.4562 27 35.0085 27L53 27C53.5523 27 54 27.4477 54 28C54 28.5523 53.5523 29 53 29L35.0085 29C34.4562 29 34.0085 28.5523 34.0085 28ZM34 35C34 34.4478 34.4477 34 35 34L52.9915 34C53.5438 34 53.9915 34.4478 53.9915 35C53.9915 35.5523 53.5438 36 52.9915 36L35 36C34.4477 36 34 35.5523 34 35ZM34 42C34 41.4477 34.4477 41 35 41L52.9915 41C53.5438 41 53.9915 41.4477 53.9915 42C53.9915 42.5523 53.5438 43 52.9915 43L35 43C34.4477 43 34 42.5523 34 42Z" fill="white"/>
<defs>
<filter id="filter0_d_1_966" x="0.812778" y="0.25" width="86.0893" height="92.0893" filterUnits="userSpaceOnUse" color-interpolation-filters="sRGB">
<feFlood flood-opacity="0" result="BackgroundImageFix"/>
<feColorMatrix in="SourceAlpha" type="matrix" values="0 0 0 0 0 0 0 0 0 0 0 0 0 0 0 0 0 0 127 0" result="hardAlpha"/>
<feOffset dy="11.2946"/>
<feGaussianBlur stdDeviation="8.52232"/>
<feComposite in2="hardAlpha" operator="out"/>
<feColorMatrix type="matrix" values="0 0 0 0 0 0 0 0 0 0 0 0 0 0 0 0 0 0 0.38 0"/>
<feBlend mode="overlay" in2="BackgroundImageFix" result="effect1_dropShadow_1_966"/>
<feBlend mode="normal" in="SourceGraphic" in2="effect1_dropShadow_1_966" result="shape"/>
</filter>
</defs>
</svg>
